<svg width="213" height="227" viewBox="0 0 213 227" fill="none" xmlns="http://www.w3.org/2000/svg">
<path opacity="0.992" fill-rule="evenodd" clip-rule="evenodd" d="M78.4412 43.6887C78.2712 43.9921 78.0168 44.1586 77.6781 44.188C74.461 43.7 71.3096 43.995 68.2248 45.0732C63.9861 46.5724 60.3896 49.1066 57.4362 52.6761C55.2789 55.4799 53.8236 58.6573 53.0698 62.2082C52.3657 65.544 52.1538 68.9179 52.434 72.3304C52.4988 73.2428 52.5976 74.1506 52.7307 75.0539C52.9728 76.6026 53.2411 78.1459 53.5362 79.6837C53.8304 81.2711 53.9927 82.8752 54.0237 84.4952C54.0003 88.141 52.9969 91.4241 51.0139 94.345C50.6183 95.0014 50.1164 95.1071 49.509 94.6628C49.2699 94.2815 49.2555 93.8884 49.4666 93.4826C50.5662 92.051 51.3432 90.4319 51.7981 88.6258C52.3933 86.3076 52.506 83.9623 52.1372 81.5902C51.8214 79.6216 51.4963 77.6548 51.1622 75.6893C50.498 71.4798 50.5124 67.2734 51.2046 63.0707C52.623 55.1922 56.6006 49.3295 63.1378 45.4817C66.3626 43.5844 69.8103 42.495 73.4814 42.2135C75.0041 42.1192 76.5157 42.21 78.0173 42.4859C78.3466 42.6617 78.5022 42.9491 78.4836 43.3483C78.481 43.4657 78.467 43.5792 78.4412 43.6887Z" fill="black"/>
<path opacity="0.992" fill-rule="evenodd" clip-rule="evenodd" d="M101.333 92.3933C99.9201 90.6266 99.0511 88.5841 98.7255 86.2655C98.4809 84.4285 98.3961 82.5829 98.4712 80.7278C98.5826 78.2985 98.7806 75.8773 99.0646 73.4652C99.5878 69.0778 99.1494 64.811 97.7505 60.665C96.6441 57.4926 95.0896 54.6026 93.0874 51.9953C89.6262 48.0731 85.4082 45.6597 80.4336 44.7555C80.108 44.5791 79.924 44.2992 79.8825 43.9158C79.9448 43.4176 80.2063 43.115 80.6667 43.0079C84.1322 43.5484 87.3044 44.8723 90.1836 46.9796C92.7114 48.7939 94.7958 51.0707 96.4364 53.811C98.8997 57.9411 100.369 62.4502 100.845 67.3375C100.946 68.6534 100.961 69.9697 100.887 71.2865C100.73 73.5447 100.532 75.7992 100.294 78.0497C100.088 80.1958 100.059 82.3442 100.209 84.4952C100.327 86.5129 100.864 88.3893 101.82 90.1237C102.099 90.5735 102.409 90.997 102.753 91.3947C102.968 91.8586 102.905 92.2748 102.562 92.6429C102.084 92.9157 101.674 92.8326 101.333 92.3933Z" fill="black"/>
<path fill-rule="evenodd" clip-rule="evenodd" d="M78.4412 43.6887C78.9227 43.7559 79.4035 43.8316 79.8825 43.9157C79.924 44.2991 80.108 44.579 80.4336 44.7554C85.4082 45.6596 89.6262 48.073 93.0874 51.9953C95.0896 54.6025 96.6441 57.4926 97.7505 60.6649C99.1494 64.8109 99.5878 69.0777 99.0646 73.4652C98.7806 75.8772 98.5827 78.2984 98.4712 80.7277C98.3961 82.5828 98.4809 84.4284 98.7255 86.2654C99.0511 88.584 99.9201 90.6266 101.333 92.3932C100.274 92.9124 99.1855 93.3509 98.0684 93.7095C98.0375 93.6183 98.0023 93.5275 97.9625 93.4372C96.6004 92.0341 95.7246 90.3392 95.3342 88.3534C95.2011 87.619 95.1163 86.8773 95.0798 86.1292C94.9069 85.5637 94.5466 85.344 93.9989 85.4711C93.6271 85.6422 93.4431 85.9449 93.4478 86.3789C93.5669 89.3474 94.5135 91.9574 96.288 94.2088C95.8747 94.2701 95.4648 94.3454 95.0586 94.4358C94.2719 93.3437 93.3744 92.36 92.3668 91.4854C92.1421 90.2934 91.8314 89.1282 91.4342 87.9903C90.7763 86.4996 89.7661 86.1442 88.4032 86.9236C87.9445 87.2622 87.5558 87.678 87.2374 88.1718C86.6825 89.0769 86.1526 89.9997 85.6477 90.9407C84.8601 90.9221 84.0898 91.0283 83.3374 91.2584C82.6167 90.2448 81.7829 89.352 80.8363 88.5803C80.8223 87.8391 80.8079 87.0974 80.7939 86.3562C80.7727 86.3108 80.7515 86.2654 80.7303 86.22C82.8698 85.935 84.9326 85.3521 86.9195 84.4725C88.8017 83.5919 90.4053 82.3132 91.7309 80.6369C92.4062 79.706 92.9501 78.6919 93.363 77.5957C95.104 77.2367 96.3406 76.1927 97.0722 74.4638C97.7331 72.7158 97.6623 71.0059 96.8603 69.3346C96.3622 68.4431 95.6627 67.8004 94.7619 67.4055C94.3431 67.2893 93.9259 67.1758 93.5114 67.065C93.157 65.5009 92.6411 64.003 91.9641 62.5713C91.8471 62.2727 91.6635 62.038 91.413 61.8678C90.9043 61.7125 90.53 61.8868 90.2896 62.3898C90.2612 62.6018 90.2612 62.8133 90.2896 63.0253C91.0802 64.5522 91.6453 66.1713 91.9853 67.8821C92.3956 69.8707 92.5508 71.8833 92.4516 73.9191C92.0425 77.9121 90.1561 80.7944 86.7923 82.566C81.782 84.9858 76.6667 85.2582 71.4466 83.3831C69.394 82.5647 67.5995 81.3237 66.0628 79.661C65.6635 79.4277 65.2892 79.4654 64.9395 79.7745C64.6898 80.1857 64.6898 80.5943 64.9395 81.0001C65.889 82.025 66.9416 82.9024 68.0976 83.6327C68.0353 83.7934 67.9929 83.9595 67.9705 84.132C68.04 86.2881 67.948 88.4365 67.6949 90.5775C67.6665 90.8966 67.6733 91.2144 67.7161 91.5307C67.4139 91.6696 67.1171 91.8213 66.8259 91.9847C66.5889 91.3737 66.179 91.1844 65.5965 91.4173C65.293 91.5834 64.9823 91.6969 64.6639 91.7577C65.0806 90.3651 65.3066 88.9353 65.3422 87.4683C65.3252 87.067 65.304 86.6662 65.2786 86.2654C65.0709 85.7121 64.6961 85.5228 64.1552 85.698C63.7796 85.9036 63.6101 86.2368 63.6465 86.6966C63.7461 88.7043 63.4002 90.6179 62.6079 92.4386C62.5126 92.6278 62.4066 92.8094 62.29 92.9833C61.3311 93.5275 60.3845 94.0872 59.4498 94.6627C58.7724 94.7195 58.0941 94.7649 57.415 94.7989C58.1755 93.439 58.7334 91.9865 59.0894 90.4414C59.6244 88.3847 59.78 86.2967 59.5557 84.1774C59.2353 83.5901 58.8046 83.4766 58.2628 83.837C58.1454 83.945 58.0534 84.0739 57.9873 84.2228C58.1738 87.2631 57.6795 90.1681 56.5036 92.9379C56.2802 93.3736 56.0398 93.7971 55.7829 94.2088C55.7291 94.3858 55.7079 94.5674 55.7193 94.7535C54.1411 94.6645 52.5726 94.5284 51.0139 94.345C52.9969 91.4241 54.0003 88.141 54.0237 84.4952C53.9927 82.8752 53.8303 81.271 53.5362 79.6837C53.2411 78.1459 52.9728 76.6026 52.7307 75.0538C52.5976 74.1506 52.4988 73.2427 52.434 72.3304C52.1538 68.9179 52.3657 65.544 53.0698 62.2082C53.8236 58.6573 55.2789 55.4799 57.4362 52.6761C60.3896 49.1066 63.9861 46.5724 68.2248 45.0731C71.3096 43.995 74.461 43.6999 77.6781 44.188C78.0168 44.1586 78.2712 43.9921 78.4412 43.6887Z" fill="#FEFEFE"/>
<path fill-rule="evenodd" clip-rule="evenodd" d="M86.9195 55.4904C87.4337 55.519 87.7232 55.8063 87.7885 56.3528C87.9102 58.6541 87.3731 60.7575 86.1776 62.6621C85.3404 63.9521 84.3302 65.0642 83.1466 65.9984C82.6612 66.1454 82.2869 65.9866 82.0232 65.5217C81.9542 65.1745 82.0105 64.8568 82.1928 64.5685C83.8397 63.2949 85.0267 61.6458 85.7537 59.6209C86.1234 58.4757 86.2645 57.2956 86.1776 56.0804C86.3349 55.7436 86.582 55.5471 86.9195 55.4904Z" fill="#010101"/>
<path fill-rule="evenodd" clip-rule="evenodd" d="M80.264 55.672C81.0605 55.5789 81.4064 55.9575 81.3026 56.8067C80.7964 59.2497 79.8638 61.4893 78.5047 63.5246C77.8553 64.402 77.099 65.151 76.2368 65.7715C76.0316 65.904 75.8197 66.0252 75.6009 66.1346C74.9901 66.3143 74.5941 66.0797 74.414 65.431C74.4046 65.1414 74.4894 64.8918 74.6683 64.6821C75.8947 63.959 76.8909 62.9681 77.6569 61.709C78.6646 59.9827 79.3712 58.1217 79.7765 56.1259C79.8854 55.9053 80.0478 55.7541 80.264 55.672Z" fill="#010101"/>
<path fill-rule="evenodd" clip-rule="evenodd" d="M73.1422 56.4436C73.9133 56.4141 74.2453 56.8076 74.1384 57.6237C72.8722 62.2659 70.4207 66.0106 66.7835 68.858C65.9501 69.4934 65.0599 70.0227 64.1128 70.4467C63.9717 70.4771 63.8301 70.4771 63.6889 70.4467C62.3934 70.04 61.3832 70.4408 60.6579 71.6495C59.6507 73.6717 59.9123 75.4796 61.4422 77.0737C62.0471 77.5794 62.7254 77.9121 63.477 78.0723C63.8068 78.4645 63.8564 78.8957 63.6253 79.366C63.5138 79.4899 63.3799 79.573 63.2226 79.6156C62.9238 79.6488 62.627 79.6338 62.3324 79.5702C60.3413 78.854 59.0763 77.4087 58.5384 75.2354C58.206 73.3458 58.5735 71.6359 59.6405 70.1062C60.7889 68.7282 62.209 68.2366 63.9009 68.631C67.0591 66.8231 69.4826 64.2281 71.171 60.8465C71.8039 59.5773 72.2982 58.2456 72.6547 56.8521C72.7874 56.6714 72.9502 56.5352 73.1422 56.4436Z" fill="#010101"/>
<path opacity="0.996" fill-rule="evenodd" clip-rule="evenodd" d="M95.0586 94.4358C95.6559 95.3818 96.1434 96.3954 96.5211 97.477C96.8047 98.4066 96.9743 99.3598 97.0298 100.337C100.791 102.91 104.112 106.042 106.992 109.733C107.081 106.981 107.137 104.228 107.161 101.471C107.193 98.117 107.229 94.7658 107.267 91.4173C107.12 90.8754 107.29 90.4973 107.776 90.2826C123.71 85.359 139.677 80.563 155.678 75.8936C164.195 73.4089 172.715 70.9429 181.241 68.4949C181.734 68.4178 182.052 68.6374 182.194 69.1531C182.205 69.3828 182.233 69.6097 182.279 69.834C182.308 73.2383 182.308 76.6426 182.279 80.0469C182.138 93.0746 181.968 106.102 181.77 119.128C181.737 124.88 181.695 130.629 181.643 136.377C181.548 136.614 181.386 136.772 181.156 136.854C179.705 137.356 178.264 137.886 176.832 138.442C172.737 140.082 168.64 141.709 164.538 143.322C165.282 145.672 165.995 148.033 166.679 150.403C167.604 153.835 168.523 157.27 169.435 160.707C169.861 162.258 170.312 163.802 170.791 165.336C170.884 165.724 170.792 166.05 170.516 166.312C170.325 166.483 170.113 166.619 169.88 166.721C168.982 167.102 168.078 167.465 167.167 167.81C163.899 168.966 160.62 170.086 157.332 171.169C156.261 171.536 155.201 171.93 154.152 172.349C153.617 172.467 153.094 172.422 152.584 172.213C147.87 169.558 143.284 166.69 138.828 163.612C138.562 163.031 138.654 162.524 139.103 162.091C140.47 161.442 141.869 160.882 143.3 160.412C145.53 159.719 147.749 158.985 149.956 158.21C150.004 158.139 150.011 158.063 149.977 157.983C149.834 157.283 149.679 156.587 149.511 155.895C145.784 157.394 142.033 158.824 138.256 160.185C130.777 162.839 123.302 165.502 115.83 168.173C112.292 169.466 108.774 170.813 105.275 172.213C105.095 172.279 104.912 172.294 104.724 172.259C104.522 172.118 104.31 171.997 104.088 171.895C98.4008 167.247 92.5787 162.798 86.6227 158.551C86.2772 158.214 86.1573 157.798 86.2624 157.302C86.3501 156.981 86.5409 156.762 86.8347 156.644C91.5541 154.95 96.274 153.255 100.993 151.56C102.716 150.973 104.44 150.391 106.165 149.813C106.222 148.527 106.251 147.241 106.25 145.955C99.1121 148.263 91.9903 150.63 84.8847 153.058C70.9328 157.897 56.986 162.754 43.0442 167.629C37.0633 169.693 31.0719 171.72 25.0702 173.711C24.4527 173.776 24.1135 173.474 24.0528 172.803C24.0643 172.415 24.2338 172.143 24.5615 171.986C33.0434 169.163 41.5076 166.281 49.954 163.339C50.0172 162.214 50.0452 161.086 50.0388 159.958C49.993 157.362 49.993 154.767 50.0388 152.173C47.72 152.835 45.3885 152.888 43.0442 152.332C41.3607 151.866 39.8699 151.026 38.5719 149.813C38.4276 149.54 38.3923 149.253 38.4659 148.95C38.5688 148.757 38.7101 148.598 38.8899 148.474C39.098 148.406 39.31 148.391 39.5257 148.428C39.9911 148.775 40.4575 149.123 40.9247 149.472C42.8149 150.616 44.8497 151.1 47.029 150.925C48.1812 150.844 49.2978 150.587 50.378 150.153C53.1978 148.931 55.7697 147.282 58.0932 145.206C60.248 143.261 62.2336 141.135 64.0492 138.828C65.5151 136.971 66.9001 135.05 68.2036 133.064C68.2032 132.651 68.1608 132.243 68.0764 131.838C67.3083 128.589 65.9941 125.623 64.134 122.941C64.0526 122.575 64.1302 122.257 64.3672 121.988C64.7165 121.758 65.07 121.751 65.4269 121.965C66.023 122.725 66.5529 123.534 67.0166 124.394C68.3286 126.775 69.2541 129.317 69.7933 132.02C71.7848 131.644 73.6924 131.001 75.5161 130.09C76.3207 129.675 77.1122 129.236 77.8901 128.774C79.0995 128.001 80.0041 126.934 80.6031 125.574C80.5891 125.559 80.5747 125.544 80.5607 125.529C79.4437 126.225 78.2851 126.808 77.0846 127.276C76.4992 127.307 76.1601 127.012 76.0672 126.391C76.1096 126.005 76.2936 125.725 76.6183 125.551C77.6383 125.195 78.6133 124.726 79.5433 124.144C80.2381 123.704 80.8172 123.129 81.2814 122.419C80.9923 122.529 80.7095 122.665 80.4335 122.828C79.3394 123.275 78.2093 123.457 77.0422 123.373C76.6098 123.038 76.5039 122.606 76.7243 122.079C76.8201 121.946 76.9405 121.847 77.0846 121.784C77.5051 121.704 77.9291 121.643 78.3564 121.602C79.3284 121.462 80.2042 121.084 80.9846 120.468C81.3534 120.141 81.6502 119.755 81.8749 119.31C81.8609 119.295 81.8465 119.28 81.8325 119.265C80.6531 119.859 79.4098 120.116 78.102 120.036C77.6069 120.031 77.1122 120.009 76.6183 119.968C76.0083 119.728 75.8319 119.281 76.0884 118.629C76.2694 118.374 76.5094 118.237 76.8091 118.221C77.7798 118.297 78.7476 118.275 79.7129 118.153C80.4543 117.968 81.161 117.68 81.8325 117.29C81.9071 117.257 81.9423 117.204 81.9384 117.131C81.4293 116.733 80.9558 116.287 80.5183 115.792C79.5743 115.875 78.6272 115.928 77.6781 115.951C75.7378 116.025 73.901 115.608 72.1672 114.703C71.9502 114.488 71.8158 114.223 71.7645 113.909C71.7543 112.592 71.7543 111.276 71.7645 109.96C70.5474 111.086 69.4876 112.357 68.5851 113.772C67.1849 116.013 65.9132 118.343 64.7699 120.763C64.6546 120.901 64.5554 121.053 64.4731 121.216C64.3778 121.347 64.2578 121.438 64.1128 121.489C62.4468 121.847 60.8075 122.324 59.1954 122.919C53.8291 124.988 48.6289 127.515 43.5953 130.499C42.6911 131.074 41.7866 131.649 40.8823 132.224C40.3915 132.373 40.017 132.214 39.7589 131.747C39.6611 131.178 39.8519 130.761 40.3312 130.499C46.7726 126.377 53.5412 123.063 60.6367 120.558C61.5341 120.28 62.4383 120.03 63.3498 119.809C64.204 118.07 65.1014 116.361 66.0416 114.68C67.1934 112.629 68.5711 110.76 70.1748 109.074C70.7395 108.545 71.3401 108.069 71.9764 107.645C72.2914 104.449 72.8849 101.317 73.7569 98.2487C73.982 97.8833 74.2999 97.7317 74.7107 97.7948C75.2024 98.0158 75.3932 98.4094 75.283 98.9749C74.7471 100.786 74.3444 102.633 74.0748 104.513C73.9701 104.944 73.8921 105.383 73.8417 105.829C73.7963 106.099 73.7751 106.371 73.7781 106.646C73.4724 108.866 73.3525 111.106 73.4178 113.364C74.263 113.751 75.1461 114.001 76.0672 114.113C77.0274 114.244 77.9884 114.252 78.9498 114.135C78.2563 113.325 77.4225 112.743 76.4487 112.388C76.2122 112.319 75.9723 112.274 75.7281 112.252C75.1261 111.995 74.9638 111.548 75.2406 110.913C75.4636 110.567 75.7675 110.446 76.152 110.55C77.0575 110.69 77.8909 111.03 78.6531 111.571C79.0889 111.901 79.5128 112.25 79.9248 112.615C80.8303 113.6 81.749 114.568 82.6803 115.52C83.6612 116.209 84.4031 115.975 84.9059 114.816C85.0669 114.404 85.0949 113.98 84.9906 113.545C84.8117 112.784 84.487 112.103 84.0156 111.503C83.4026 110.679 82.6748 110.006 81.8325 109.483C81.3272 109.247 80.8185 109.02 80.3064 108.802C79.9473 108.305 79.9757 107.836 80.3912 107.395C80.6595 107.22 80.9418 107.19 81.239 107.304C83.3073 108.075 84.897 109.475 86.008 111.503C86.6274 112.622 86.8109 113.817 86.5591 115.089C86.2145 116.337 85.4726 117.176 84.3336 117.608C84.1788 117.641 84.0237 117.663 83.8673 117.676C83.8995 118.367 83.7935 119.032 83.5493 119.673C83.6231 120.866 83.3967 121.985 82.8711 123.032C82.8037 123.516 82.7329 124.001 82.6591 124.485C82.4857 125.177 82.2878 125.858 82.0656 126.527C83.1572 125.447 84.4362 124.759 85.9021 124.462C87.4523 124.189 88.6465 124.757 89.4841 126.164C89.9038 127.205 89.9038 128.249 89.4841 129.296C89.3078 129.674 89.1098 130.037 88.8907 130.385C88.368 131.097 87.8449 131.808 87.3222 132.519C86.9127 133.191 86.6231 133.917 86.4531 134.698C87.1166 134.661 87.7808 134.646 88.4455 134.652C89.1353 134.756 89.7995 134.96 90.4379 135.265C91.4562 135.872 92.4736 136.477 93.4901 137.081C94.0946 137.267 94.7021 137.282 95.313 137.126C95.8865 136.693 96.3032 136.126 96.5635 135.424C96.9565 134.119 97.3168 132.803 97.6445 131.475C98.0977 130.271 98.67 129.136 99.3614 128.071C99.6954 127.518 99.8862 126.913 99.9336 126.255C99.9095 125.601 99.6127 125.155 99.0434 124.916C98.2371 124.652 97.4741 124.758 96.7543 125.234C95.9878 125.782 95.3308 126.456 94.7831 127.253C94.3282 127.986 93.9395 128.757 93.6173 129.568C93.2828 130.362 92.9933 131.179 92.7483 132.02C92.4452 132.371 92.0849 132.462 91.6673 132.292C91.3328 132.059 91.1989 131.726 91.2646 131.293C91.5681 130.219 91.9428 129.175 92.388 128.161C90.6058 126.736 89.6732 124.83 89.5901 122.442C89.5749 121.973 89.6172 121.511 89.7173 121.058C89.3654 119.891 89.2523 118.695 89.3782 117.472C89.0793 116.713 88.9097 115.918 88.8695 115.089C88.8712 115.001 88.8851 114.918 88.9119 114.839C88.3408 113.923 88.348 113.008 88.933 112.093C89.1598 111.756 89.4634 111.552 89.8445 111.48C90.1836 111.45 90.5227 111.45 90.8619 111.48C91.7228 111.792 92.5847 112.095 93.4477 112.388C94.7212 113.032 95.9789 113.713 97.2206 114.431C97.7941 114.724 98.3876 114.785 99.001 114.612C99.3652 114.419 99.5843 114.109 99.6581 113.682C99.6963 112.957 99.5267 112.291 99.1494 111.684C98.1998 110.214 96.9353 109.192 95.3554 108.62C94.2303 108.193 93.0717 108.012 91.8793 108.076C91.2993 107.771 91.151 107.31 91.4341 106.691C91.53 106.558 91.6503 106.46 91.7945 106.396C93.0234 106.004 93.9348 105.195 94.5287 103.968C95.1358 102.707 95.3973 101.375 95.313 99.9735C95.1752 98.5809 94.7585 97.295 94.0624 96.1153C93.346 94.8335 92.4206 93.7518 91.2858 92.8698C91.1463 92.6847 91.0124 92.4958 90.8831 92.3025C90.6207 91.1259 90.3099 89.9607 89.9504 88.8074C89.8881 88.6521 89.8173 88.501 89.7385 88.3534C89.708 88.328 89.6724 88.3131 89.6325 88.3081C89.3074 88.3802 89.0462 88.5618 88.8483 88.8527C88.3222 89.6008 87.8487 90.3879 87.4281 91.2131C87.6931 91.2989 87.9262 91.45 88.1276 91.667C88.3544 92.0982 88.3192 92.499 88.0216 92.8698C87.8427 92.9969 87.6448 93.065 87.4281 93.0741C85.9801 92.6297 84.5387 92.6524 83.1042 93.1422C82.888 93.1631 82.69 93.1027 82.5107 92.9606C81.782 91.938 80.9626 91.0002 80.052 90.1464C79.6756 89.8314 79.2661 89.574 78.8227 89.3747C78.7379 89.3443 78.6531 89.3443 78.5683 89.3747C78.4467 89.49 78.3407 89.6185 78.2504 89.7606C77.5696 91.2544 77.0041 92.7977 76.5547 94.3904C76.3428 95.1321 76.1308 95.8738 75.9189 96.6146C75.6874 96.9691 75.3695 97.1053 74.965 97.0231C74.5818 96.8701 74.3839 96.5678 74.3716 96.1153C74.5144 95.522 74.6696 94.932 74.8379 94.3451C72.3842 94.2098 70.1375 93.4304 68.0976 92.0074C67.9446 91.8667 67.8174 91.7078 67.7161 91.5308C67.6733 91.2144 67.6665 90.8967 67.6949 90.5776C67.948 88.4365 68.04 86.2882 67.9704 84.1321C67.9929 83.9596 68.0353 83.7935 68.0976 83.6328C66.9416 82.9025 65.889 82.025 64.9394 81.0001C64.6898 80.5943 64.6898 80.1858 64.9394 79.7746C65.2892 79.4655 65.6635 79.4278 66.0628 79.6611C67.5995 81.3238 69.3939 82.5647 71.4465 83.3831C76.6666 85.2582 81.782 84.9859 86.7923 82.5661C90.156 80.7945 92.0425 77.9122 92.4515 73.9191C92.5507 71.8834 92.3956 69.8707 91.9852 67.8821C91.6453 66.1714 91.0802 64.5523 90.2896 63.0253C90.2612 62.8133 90.2612 62.6018 90.2896 62.3898C90.5299 61.8869 90.9043 61.7126 91.413 61.8678C91.6635 62.0381 91.847 62.2727 91.964 62.5714C92.641 64.003 93.1569 65.5009 93.5113 67.0651C93.9259 67.1759 94.3431 67.2893 94.7619 67.4055C95.6627 67.8004 96.3622 68.4432 96.8603 69.3347C97.6623 71.0059 97.7331 72.7158 97.0722 74.4638C96.3405 76.1928 95.104 77.2368 93.363 77.5958C92.9501 78.692 92.4062 79.706 91.7309 80.637C90.4053 82.3133 88.8016 83.5919 86.9195 84.4725C84.9326 85.3522 82.8698 85.935 80.7303 86.2201C80.7515 86.2655 80.7727 86.3109 80.7939 86.3562C80.8079 87.0975 80.8223 87.8392 80.8363 88.5804C81.7829 89.352 82.6167 90.2449 83.3374 91.2585C84.0898 91.0283 84.8601 90.9221 85.6477 90.9407C86.1526 89.9998 86.6825 89.077 87.2374 88.1719C87.5557 87.678 87.9445 87.2623 88.4032 86.9236C89.766 86.1443 90.7762 86.4997 91.4341 87.9903C91.8314 89.1283 92.1421 90.2935 92.3668 91.4854C93.3744 92.3601 94.2718 93.3437 95.0586 94.4358ZM66.6987 167.107C66.8267 167.122 66.9395 167.175 67.0378 167.266C67.2154 167.501 67.4062 167.72 67.6101 167.924C67.6385 168.832 67.6385 169.739 67.6101 170.647C66.8259 169.604 66.5219 168.423 66.6987 167.107Z" fill="black"/>
<path fill-rule="evenodd" clip-rule="evenodd" d="M77.0422 68.563C77.69 68.553 78.0007 68.8934 77.9748 69.5843C77.9422 70.3182 77.907 71.0522 77.8689 71.7857C77.8786 72.6077 77.5039 72.9632 76.7455 72.8524C76.4237 72.6972 76.2398 72.4321 76.1944 72.0581C76.2559 71.0899 76.3195 70.1217 76.3852 69.153C76.52 68.8435 76.7391 68.6465 77.0422 68.563Z" fill="#010101"/>
<path fill-rule="evenodd" clip-rule="evenodd" d="M82.7651 68.6083C83.2891 68.5067 83.6494 68.7186 83.8461 69.2438C83.8745 70.3028 83.8745 71.3622 83.8461 72.4212C83.5926 72.9482 83.2043 73.107 82.6803 72.8978C82.4662 72.7743 82.3319 72.585 82.2776 72.3304C82.2344 71.3168 82.2204 70.3032 82.2352 69.2892C82.2573 69.1362 82.3136 69.0001 82.4048 68.8807C82.5209 68.7786 82.6409 68.6878 82.7651 68.6083Z" fill="black"/>
<path fill-rule="evenodd" clip-rule="evenodd" d="M93.8293 68.9716C94.7636 69.2534 95.3927 69.8889 95.7157 70.878C96.0269 72.2379 95.8149 73.4934 95.0798 74.6454C94.7657 75.0662 94.377 75.369 93.9141 75.5532C94.2138 73.3554 94.1858 71.1612 93.8293 68.9716Z" fill="#FAFAFA"/>
<path fill-rule="evenodd" clip-rule="evenodd" d="M180.562 70.5602C180.605 73.3667 180.619 76.1809 180.605 79.0029C180.606 82.1199 180.584 85.2369 180.541 88.3534C180.37 99.7915 180.215 111.23 180.075 122.669C180.035 126.891 180.021 131.113 180.032 135.333C175.945 136.864 171.882 138.46 167.845 140.122C166.551 140.627 165.251 141.119 163.945 141.597C163.328 139.656 162.515 137.81 161.507 136.059C160.903 135.049 160.091 134.3 159.07 133.812C158.712 133.645 158.345 133.615 157.968 133.722C154.361 134.923 150.758 136.134 147.158 137.353C145.359 137.932 143.55 138.476 141.732 138.987C141.121 139.263 140.958 139.725 141.244 140.371C141.308 140.44 141.371 140.508 141.435 140.576C142.806 141.105 143.972 141.96 144.932 143.14C145.825 144.219 146.56 145.414 147.137 146.726C147.264 147.068 147.37 147.416 147.455 147.77C139.665 150.67 131.851 153.537 124.012 156.372C121.259 157.349 118.503 158.318 115.746 159.277C113.092 160.191 110.435 161.091 107.776 161.977C107.743 159.421 107.75 156.864 107.797 154.306C107.918 154.038 107.932 153.765 107.84 153.489C107.828 151.765 107.843 150.04 107.882 148.315C108.139 135.514 108.407 122.714 108.688 109.914C108.796 103.878 108.874 97.8406 108.921 91.8031C126.893 86.2468 144.91 80.853 162.97 75.6213C168.83 73.9128 174.694 72.2256 180.562 70.5602Z" fill="#DBDBDB"/>
<path fill-rule="evenodd" clip-rule="evenodd" d="M180.562 70.5602C180.565 70.5357 180.579 70.5202 180.605 70.5148C180.661 73.3517 180.661 76.1809 180.605 79.0029C180.619 76.1809 180.605 73.3667 180.562 70.5602Z" fill="#6D6D6D"/>
<path opacity="0.998" fill-rule="evenodd" clip-rule="evenodd" d="M57.415 94.799C57.0941 95.4353 56.6278 95.5942 56.0161 95.2756C55.8681 95.133 55.7693 94.9592 55.7193 94.7536C55.7079 94.5675 55.7291 94.3859 55.7829 94.2089C56.0398 93.7972 56.2802 93.3737 56.5036 92.9379C57.6795 90.1682 58.1738 87.2632 57.9873 84.2229C58.0534 84.074 58.1454 83.9451 58.2628 83.837C58.8046 83.4766 59.2353 83.5901 59.5558 84.1775C59.78 86.2968 59.6244 88.3848 59.0894 90.4414C58.7334 91.9865 58.1755 93.439 57.415 94.799Z" fill="#010101"/>
<path fill-rule="evenodd" clip-rule="evenodd" d="M69.7509 84.5406C69.6805 85.1824 69.6381 85.8329 69.6237 86.4924C69.6237 85.8265 69.6237 85.1611 69.6237 84.4952C69.6784 84.4843 69.7208 84.4997 69.7509 84.5406Z" fill="#7E7E7E"/>
<path fill-rule="evenodd" clip-rule="evenodd" d="M69.7509 84.5405C72.759 85.9404 75.91 86.5454 79.2042 86.3562C79.2114 86.7951 79.2042 87.234 79.183 87.6725C78.654 87.5086 78.1525 87.5767 77.6781 87.8768C77.0884 88.3742 76.6573 89.002 76.3852 89.7605C76.0223 90.6474 75.6972 91.5552 75.4102 92.4839C73.2278 92.5584 71.207 91.9833 69.3482 90.7591C69.4817 89.3429 69.5737 87.9208 69.6237 86.4923C69.6381 85.8328 69.6805 85.1824 69.7509 84.5405Z" fill="#FDFDFD"/>
<path opacity="0.998" fill-rule="evenodd" clip-rule="evenodd" d="M98.0685 93.7095C98.1698 94.2415 97.9862 94.6119 97.5174 94.8216C97.2465 94.8766 96.9921 94.8312 96.7543 94.6855C96.6043 94.5175 96.4491 94.3586 96.288 94.2088C94.5135 91.9575 93.5669 89.3475 93.4478 86.3789C93.4431 85.945 93.6271 85.6422 93.9989 85.4711C94.5466 85.344 94.9069 85.5637 95.0799 86.1293C95.1163 86.8773 95.2011 87.619 95.3342 88.3534C95.7246 90.3393 96.6004 92.0342 97.9625 93.4372C98.0023 93.5275 98.0375 93.6183 98.0685 93.7095Z" fill="#010101"/>
<path opacity="0.993" fill-rule="evenodd" clip-rule="evenodd" d="M66.8259 91.9847C66.8856 92.469 66.7161 92.8249 66.3172 93.0514C64.2256 93.8612 62.2332 94.9052 60.34 96.1834C57.7753 97.9286 55.3874 99.9258 53.1758 102.175C49.5174 105.909 46.2041 109.941 43.235 114.272C39.5114 120.023 37.1375 126.362 36.1132 133.29C35.7763 135.99 35.8046 138.683 36.198 141.37C36.4182 142.534 36.7291 143.669 37.1306 144.774C37.4026 145.402 37.6852 146.023 37.9784 146.635C38.0242 147.112 37.8475 147.461 37.4485 147.679C37.074 147.767 36.756 147.66 36.4947 147.362C35.2154 144.924 34.4805 142.306 34.2904 139.509C34.0724 136.107 34.3409 132.748 35.0958 129.432C36.612 122.737 39.325 116.684 43.235 111.276C45.1871 108.625 47.2503 106.068 49.4242 103.605C52.4522 100.185 55.7939 97.2051 59.4497 94.6628C60.3845 94.0872 61.3311 93.5275 62.29 92.9833C62.4066 92.8095 62.5125 92.6279 62.6079 92.4386C63.4002 90.618 63.7461 88.7043 63.6465 86.6967C63.61 86.2369 63.7796 85.9037 64.1552 85.6981C64.6961 85.5229 65.0709 85.7121 65.2786 86.2654C65.304 86.6662 65.3252 87.0671 65.3422 87.4683C65.3066 88.9353 65.0806 90.3652 64.6639 91.7577C64.9823 91.6969 65.293 91.5834 65.5965 91.4173C66.179 91.1845 66.5889 91.3737 66.8259 91.9847Z" fill="black"/>
<path fill-rule="evenodd" clip-rule="evenodd" d="M95.313 99.9735C95.313 100.034 95.313 100.095 95.313 100.155C93.1464 100.007 91.1395 99.3412 89.2934 98.1578C89.8996 97.8578 90.048 97.3884 89.7385 96.7507C89.4002 96.3567 89.0115 96.2886 88.5727 96.5464C88.2747 96.7843 88.1759 97.0948 88.276 97.4769C87.6753 97.0412 87.0958 96.5723 86.5379 96.0698C85.3535 97.7243 83.9686 99.1541 82.3836 100.359C79.8507 102.298 77.0812 103.682 74.0748 104.513C74.3444 102.632 74.7472 100.786 75.283 98.9749C75.3932 98.4093 75.2024 98.0157 74.7107 97.7947C74.7794 97.5278 74.8642 97.2709 74.9651 97.023C75.3695 97.1052 75.6874 96.969 75.9189 96.6145C76.1308 95.8737 76.3428 95.1321 76.5547 94.3904C77.0041 92.7976 77.5696 91.2543 78.2504 89.7605C78.3407 89.6184 78.4467 89.49 78.5683 89.3747C78.6531 89.3443 78.7379 89.3443 78.8227 89.3747C79.2661 89.5739 79.6756 89.8313 80.052 90.1463C80.9626 91.0001 81.782 91.9379 82.5107 92.9606C82.6901 93.1026 82.888 93.163 83.1042 93.1421C84.5388 92.6523 85.9801 92.6297 87.4282 93.074C87.6448 93.065 87.8427 92.9969 88.0216 92.8698C88.3192 92.4989 88.3544 92.0981 88.1276 91.6669C87.9263 91.4499 87.6931 91.2988 87.4282 91.213C87.8487 90.3878 88.3222 89.6007 88.8483 88.8527C89.0462 88.5617 89.3074 88.3802 89.6325 88.308C89.6724 88.313 89.708 88.328 89.7385 88.3534C89.8173 88.5009 89.8881 88.652 89.9505 88.8073C90.3099 89.9607 90.6207 91.1259 90.8831 92.3024C91.0124 92.4957 91.1463 92.6846 91.2858 92.8698C92.4206 93.7517 93.346 94.8334 94.0624 96.1152C94.7585 97.2949 95.1752 98.5809 95.313 99.9735Z" fill="#F5C673"/>
<path fill-rule="evenodd" clip-rule="evenodd" d="M67.7161 91.5308C67.8174 91.7078 67.9446 91.8667 68.0976 92.0074C70.1375 93.4304 72.3843 94.2097 74.8379 94.345C74.6696 94.9319 74.5144 95.522 74.3716 96.1152C74.3839 96.5678 74.5818 96.8701 74.9651 97.0231C74.8642 97.2709 74.7794 97.5278 74.7107 97.7947C74.2999 97.7316 73.982 97.8832 73.7569 98.2486C72.8849 101.317 72.2914 104.449 71.9765 107.645C71.3402 108.068 70.7395 108.545 70.1748 109.074C68.5711 110.76 67.1934 112.629 66.0416 114.68C65.1014 116.361 64.204 118.07 63.3498 119.809C62.4384 120.03 61.5342 120.28 60.6367 120.558C53.5412 123.063 46.7726 126.376 40.3312 130.499C39.8519 130.761 39.6611 131.177 39.7589 131.747C40.017 132.214 40.3915 132.373 40.8823 132.224C41.7866 131.649 42.6911 131.074 43.5953 130.499C48.6289 127.515 53.8291 124.988 59.1954 122.919C60.8076 122.324 62.4468 121.847 64.1128 121.489C64.1963 121.654 64.2811 121.821 64.3672 121.988C64.1302 122.257 64.0526 122.575 64.134 122.941C65.9942 125.623 67.3083 128.589 68.0764 131.838C68.1608 132.243 68.2032 132.651 68.2036 133.063C66.9001 135.05 65.5151 136.971 64.0492 138.828C62.2336 141.135 60.248 143.261 58.0932 145.206C55.7698 147.282 53.1979 148.931 50.378 150.153C49.2978 150.587 48.1812 150.844 47.029 150.925C44.8497 151.1 42.8149 150.616 40.9247 149.472C40.4575 149.123 39.9912 148.775 39.5257 148.428C39.31 148.391 39.0981 148.406 38.8899 148.474C38.7101 148.598 38.5688 148.757 38.466 148.95C38.0867 148.56 37.7476 148.137 37.4486 147.679C37.8476 147.461 38.0242 147.112 37.9785 146.635C37.6852 146.023 37.4026 145.402 37.1306 144.774C36.7291 143.669 36.4182 142.534 36.198 141.37C35.8046 138.683 35.7763 135.99 36.1132 133.29C37.1375 126.362 39.5114 120.023 43.235 114.272C46.2041 109.941 49.5174 105.909 53.1758 102.175C55.3874 99.9258 57.7753 97.9286 60.34 96.1833C62.2332 94.9051 64.2256 93.8611 66.3172 93.0514C66.7161 92.8249 66.8857 92.469 66.8259 91.9847C67.1171 91.8213 67.4139 91.6697 67.7161 91.5308Z" fill="#EB5757"/>
<path fill-rule="evenodd" clip-rule="evenodd" d="M88.276 97.4769C88.435 97.9926 88.7741 98.2195 89.2934 98.1578C91.1396 99.3411 93.1464 100.007 95.313 100.155C95.313 100.095 95.313 100.034 95.313 99.9734C95.3974 101.375 95.1358 102.706 94.5288 103.968C93.9349 105.195 93.0234 106.004 91.7945 106.396C91.6504 106.46 91.53 106.558 91.4342 106.691C91.151 107.31 91.2994 107.771 91.8793 108.076C93.0718 108.012 94.2303 108.193 95.3554 108.62C96.9353 109.192 98.1999 110.214 99.1494 111.684C99.5267 112.291 99.6963 112.957 99.6581 113.682C99.5844 114.109 99.3652 114.419 99.0011 114.612C98.3877 114.785 97.7942 114.724 97.2206 114.43C95.979 113.713 94.7212 113.032 93.4478 112.388C92.5847 112.095 91.7229 111.792 90.8619 111.48C90.5228 111.45 90.1836 111.45 89.8445 111.48C89.4634 111.552 89.1599 111.756 88.9331 112.093C88.3481 113.007 88.3409 113.923 88.9119 114.839C88.8852 114.918 88.8712 115.001 88.8695 115.089C88.9098 115.918 89.0793 116.713 89.3782 117.472C89.2523 118.695 89.3655 119.891 89.7173 121.058C89.6173 121.511 89.5749 121.973 89.5901 122.442C89.6732 124.83 90.6058 126.736 92.388 128.161C91.9429 129.175 91.5681 130.219 91.2646 131.293C91.1989 131.726 91.3329 132.059 91.6673 132.292C91.059 133.207 90.2676 133.881 89.2934 134.312C89.0111 134.44 88.7283 134.553 88.4456 134.652C87.7809 134.646 87.1166 134.661 86.4532 134.698C86.6232 133.917 86.9127 133.191 87.3222 132.519C87.8449 131.807 88.368 131.097 88.8907 130.385C89.1098 130.037 89.3078 129.674 89.4842 129.296C89.9038 128.249 89.9038 127.205 89.4842 126.164C88.6465 124.756 87.4523 124.189 85.9021 124.462C84.4362 124.759 83.1572 125.447 82.0656 126.527C82.2878 125.858 82.4857 125.177 82.6591 124.485C82.7329 124.001 82.8037 123.516 82.8711 123.032C83.3967 121.985 83.6231 120.866 83.5494 119.673C83.7935 119.032 83.8995 118.367 83.8673 117.676C84.0237 117.663 84.1789 117.641 84.3336 117.608C85.4727 117.176 86.2145 116.336 86.5591 115.089C86.811 113.817 86.6274 112.622 86.0081 111.503C84.897 109.475 83.3073 108.075 81.239 107.304C80.9418 107.19 80.6595 107.22 80.3912 107.395C79.9757 107.836 79.9473 108.305 80.3064 108.802C80.8185 109.02 81.3272 109.247 81.8325 109.483C82.6748 110.006 83.4027 110.679 84.0157 111.503C84.4871 112.103 84.8118 112.784 84.9907 113.545C85.0949 113.98 85.067 114.404 84.9059 114.816C84.4031 115.975 83.6613 116.209 82.6803 115.52C81.749 114.568 80.8304 113.6 79.9249 112.615C79.5128 112.249 79.0889 111.901 78.6531 111.571C77.8909 111.03 77.0575 110.69 76.152 110.55C75.4165 109.687 74.7739 108.748 74.2232 107.735C74.0617 107.374 73.9133 107.011 73.7781 106.646C73.7751 106.371 73.7963 106.099 73.8417 105.829C73.8921 105.383 73.9701 104.944 74.0748 104.513C77.0813 103.682 79.8507 102.298 82.3836 100.359C83.9686 99.1541 85.3535 97.7243 86.538 96.0698C87.0958 96.5723 87.6753 97.0412 88.276 97.4769Z" fill="#FEFEFE"/>
<path fill-rule="evenodd" clip-rule="evenodd" d="M89.2934 98.1579C88.7741 98.2196 88.435 97.9927 88.276 97.477C88.176 97.0948 88.2747 96.7844 88.5727 96.5465C89.0115 96.2887 89.4002 96.3568 89.7385 96.7508C90.048 97.3885 89.8996 97.8579 89.2934 98.1579Z" fill="#030202"/>
<path fill-rule="evenodd" clip-rule="evenodd" d="M83.7825 96.7961C84.5761 96.7757 84.908 97.1842 84.7787 98.0217C84.5303 98.5137 84.156 98.6726 83.6553 98.4983C83.1848 98.1787 83.0644 97.7475 83.295 97.2047C83.429 97.0226 83.5913 96.8865 83.7825 96.7961Z" fill="#030201"/>
<path fill-rule="evenodd" clip-rule="evenodd" d="M86.9618 99.1111C87.4006 99.0752 87.7045 99.2718 87.8733 99.7012C87.9275 99.9136 87.9415 100.126 87.9156 100.337C88.3396 100.7 88.7635 101.063 89.1874 101.426C89.3832 101.803 89.3832 102.181 89.1874 102.561C88.8372 102.917 88.4485 102.97 88.0216 102.72C87.7842 102.465 87.5227 102.246 87.2374 102.061C86.8495 102.416 86.4892 102.802 86.1564 103.219C85.6108 103.483 85.1937 103.339 84.9059 102.788C84.8495 102.481 84.8919 102.194 85.033 101.925C85.4357 101.373 85.8948 100.881 86.4108 100.45C86.1394 99.7851 86.323 99.3385 86.9618 99.1111Z" fill="#010101"/>
<path fill-rule="evenodd" clip-rule="evenodd" d="M96.8391 102.379C100.757 105.158 104.141 108.562 106.992 112.592C106.963 114.392 106.927 116.192 106.886 117.994C106.77 118.026 106.657 118.026 106.547 117.994C105.605 116.676 104.503 115.533 103.24 114.567C102.604 114.09 101.968 113.614 101.333 113.137C101.215 112.038 100.84 111.054 100.209 110.187C99.1418 108.779 97.8205 107.743 96.2456 107.077C95.7534 106.899 95.2592 106.733 94.7619 106.578C95.8047 105.381 96.4974 103.982 96.8391 102.379Z" fill="#EB5757"/>
<path fill-rule="evenodd" clip-rule="evenodd" d="M148.896 102.561C149.758 102.462 150.182 102.878 150.168 103.809C150.119 104.949 149.667 105.857 148.811 106.532C148.424 106.835 147.993 107.024 147.518 107.1C147.14 107.043 146.872 106.831 146.713 106.464C146.647 104.653 147.375 103.352 148.896 102.561Z" fill="#FEFEFE"/>
<path fill-rule="evenodd" clip-rule="evenodd" d="M73.7781 106.646C73.9133 107.011 74.0617 107.375 74.2232 107.735C74.7739 108.749 75.4165 109.687 76.152 110.55C75.7675 110.446 75.4636 110.567 75.2406 110.913C74.9638 111.548 75.1261 111.995 75.7281 112.252C75.9723 112.274 76.2122 112.319 76.4488 112.388C77.4225 112.743 78.2563 113.325 78.9499 114.135C77.9884 114.252 77.0274 114.244 76.0672 114.113C75.1461 114.001 74.2631 113.751 73.4178 113.364C73.3525 111.106 73.4724 108.866 73.7781 106.646Z" fill="#F3C472"/>
<path fill-rule="evenodd" clip-rule="evenodd" d="M148.387 108.416C149.758 108.277 151.043 108.557 152.245 109.256C152.795 109.657 152.901 110.164 152.563 110.777C152.057 111.197 151.577 111.651 151.121 112.138C150.668 112.748 150.413 113.444 150.358 114.226C150.267 115.155 150.352 116.063 150.613 116.95C150.782 117.342 150.994 117.705 151.249 118.039C151.603 118.404 151.971 118.752 152.351 119.083C152.477 119.363 152.491 119.651 152.393 119.946C151.567 121.278 150.429 122.163 148.981 122.601C147.429 123.034 145.875 123.049 144.318 122.646C143.943 122.54 143.625 122.336 143.364 122.034C143.215 121.709 143.229 121.391 143.406 121.08C143.94 120.66 144.421 120.176 144.847 119.628C145.25 118.932 145.547 118.191 145.738 117.404C145.8 116.391 145.673 115.407 145.356 114.453C145.215 114.211 145.073 113.969 144.932 113.727C144.533 113.269 144.109 112.845 143.661 112.456C143.466 112.007 143.508 111.584 143.788 111.185C145.042 109.729 146.575 108.806 148.387 108.416Z" fill="#FEFEFE"/>
<path fill-rule="evenodd" clip-rule="evenodd" d="M64.3672 121.988C64.2811 121.821 64.1963 121.654 64.1128 121.489C64.2578 121.437 64.3778 121.347 64.4732 121.216C64.5554 121.053 64.6546 120.901 64.7699 120.763C65.9132 118.343 67.1849 116.013 68.5851 113.772C69.4876 112.357 70.5474 111.086 71.7645 109.959C71.7543 111.276 71.7543 112.592 71.7645 113.908C71.8158 114.223 71.9502 114.488 72.1672 114.703C73.901 115.608 75.7379 116.025 77.6781 115.951C78.6273 115.928 79.5743 115.875 80.5183 115.792C80.9558 116.287 81.4293 116.733 81.9385 117.131C81.9423 117.204 81.9071 117.257 81.8325 117.29C81.161 117.68 80.4543 117.968 79.7129 118.153C78.7476 118.275 77.7799 118.297 76.8091 118.221C76.5094 118.237 76.2694 118.374 76.0884 118.629C75.832 119.281 76.0083 119.728 76.6183 119.968C77.1122 120.009 77.6069 120.031 78.102 120.036C79.4098 120.116 80.6531 119.859 81.8325 119.265C81.8465 119.28 81.8609 119.295 81.8749 119.31C81.6502 119.755 81.3535 120.141 80.9846 120.467C80.2042 121.084 79.3284 121.462 78.3564 121.602C77.9291 121.643 77.5052 121.703 77.0846 121.784C76.9405 121.847 76.8201 121.946 76.7243 122.079C76.5039 122.606 76.6098 123.038 77.0422 123.372C78.2093 123.457 79.3394 123.275 80.4336 122.828C80.7095 122.665 80.9923 122.529 81.2814 122.419C80.8172 123.129 80.2381 123.704 79.5433 124.144C78.6133 124.726 77.6383 125.194 76.6183 125.551C76.2936 125.725 76.1096 126.005 76.0672 126.391C76.1601 127.012 76.4992 127.307 77.0846 127.276C78.2852 126.808 79.4437 126.225 80.5607 125.529C80.5747 125.544 80.5891 125.559 80.6031 125.574C80.0041 126.934 79.0995 128.001 77.8901 128.774C77.1122 129.236 76.3207 129.675 75.5161 130.09C73.6925 131.001 71.7848 131.644 69.7933 132.019C69.2541 129.317 68.3287 126.775 67.0166 124.394C66.5529 123.534 66.023 122.725 65.427 121.965C65.07 121.751 64.7165 121.758 64.3672 121.988Z" fill="#FEFEFE"/>
<path fill-rule="evenodd" clip-rule="evenodd" d="M90.226 113.228C90.4274 113.217 90.6249 113.24 90.8195 113.296C91.4622 113.56 92.1124 113.803 92.7695 114.022C94.0158 114.652 95.2452 115.317 96.4576 116.019C97.455 116.544 98.4869 116.635 99.5522 116.292C100.121 116.03 100.574 115.621 100.909 115.066C102.684 116.136 104.189 117.551 105.423 119.31C105.426 121.684 105.017 123.968 104.194 126.164C103.681 127.454 102.954 128.581 102.011 129.546C101.884 129.576 101.757 129.576 101.629 129.546C101.276 129.476 100.923 129.408 100.57 129.341C100.975 128.696 101.279 128 101.481 127.253C101.732 126.145 101.549 125.131 100.93 124.212C100.069 123.25 99.0163 122.864 97.7717 123.055C97.2719 123.117 96.7916 123.253 96.3304 123.463C95.9798 123.677 95.6339 123.897 95.2918 124.122C93.8153 123.664 92.6283 122.772 91.7309 121.443C91.4651 121.026 91.2956 120.572 91.2222 120.082C92.1972 121.099 93.335 121.833 94.6347 122.283C95.4788 122.378 95.8251 121.977 95.6733 121.08C95.4207 120.702 95.0743 120.482 94.6347 120.422C93.2413 119.763 92.118 118.756 91.2646 117.404C91.207 117.297 91.1646 117.191 91.1374 117.086C92.2786 117.897 93.522 118.441 94.8679 118.72C95.5627 118.641 95.831 118.232 95.6733 117.494C95.6072 117.346 95.5152 117.217 95.3978 117.109C93.8369 116.735 92.438 116.008 91.201 114.93C90.8661 114.602 90.5622 114.246 90.2896 113.863C90.2116 113.764 90.162 113.651 90.1412 113.523C90.1802 113.428 90.2082 113.33 90.226 113.228Z" fill="#FDFDFD"/>
<path fill-rule="evenodd" clip-rule="evenodd" d="M106.716 123.304C106.745 123.531 106.759 123.766 106.759 124.008C106.661 128.01 106.57 132.012 106.483 136.014C106.474 136.079 106.453 136.14 106.42 136.195C105.385 135.173 104.502 134.023 103.77 132.746C103.461 132.212 103.157 131.675 102.859 131.134C103.105 130.856 103.366 130.592 103.643 130.34C104.721 129.045 105.527 127.577 106.059 125.937C106.335 125.075 106.554 124.198 106.716 123.304Z" fill="#FC603F"/>
<path fill-rule="evenodd" clip-rule="evenodd" d="M91.4554 123.849C91.8424 124.17 92.2379 124.48 92.6423 124.78C93.0751 125.034 93.513 125.276 93.9565 125.506C93.7038 125.844 93.4562 126.184 93.2146 126.527C92.3384 125.854 91.7517 124.961 91.4554 123.849Z" fill="#F9F9F9"/>
<path fill-rule="evenodd" clip-rule="evenodd" d="M97.6445 131.475C96.4987 131.531 95.4529 131.221 94.5076 130.544C94.1727 130.254 93.8759 129.928 93.6173 129.568C93.9395 128.757 94.3282 127.986 94.7831 127.253C95.3308 126.455 95.9879 125.782 96.7543 125.234C97.4741 124.758 98.2372 124.652 99.0435 124.916C99.6128 125.155 99.9095 125.601 99.9337 126.255C99.8862 126.913 99.6954 127.518 99.3614 128.07C98.67 129.136 98.0977 130.271 97.6445 131.475Z" fill="#FEFDFD"/>
<path fill-rule="evenodd" clip-rule="evenodd" d="M85.139 133.29C84.3183 133.218 83.5413 132.984 82.8075 132.587C82.1593 132.158 81.6506 131.591 81.2814 130.885C81.8079 129.359 82.6981 128.126 83.9521 127.185C84.6087 126.69 85.3294 126.357 86.114 126.187C86.8126 126.073 87.4129 126.278 87.9157 126.8C88.081 127.041 88.159 127.314 88.1488 127.617C88.0929 128.288 87.8737 128.893 87.4918 129.432C86.8856 130.186 86.3201 130.973 85.7961 131.793C85.529 132.273 85.3099 132.773 85.139 133.29Z" fill="#FEFEFE"/>
<path fill-rule="evenodd" clip-rule="evenodd" d="M81.2814 130.885C81.6506 131.591 82.1593 132.158 82.8075 132.587C83.5413 132.984 84.3183 133.218 85.139 133.291C84.7851 134.345 84.5943 135.434 84.5667 136.559C84.4544 138.721 83.3874 139.697 81.3662 139.486C79.2021 139.065 77.4852 137.893 76.2156 135.969C75.5204 134.911 75.0753 133.747 74.8803 132.473C74.8943 132.413 74.9087 132.352 74.9227 132.292C76.5153 131.621 78.0274 130.781 79.4586 129.773C79.6892 129.6 79.9083 129.411 80.1156 129.205C79.821 129.924 79.5667 130.666 79.3526 131.429C79.1461 132.324 79.0758 133.232 79.1406 134.153C79.2114 134.441 79.3742 134.645 79.6281 134.766C80.1356 134.884 80.4959 134.694 80.7091 134.198C80.6964 133.272 80.8096 132.364 81.0482 131.475C81.0983 131.261 81.1758 131.064 81.2814 130.885Z" fill="#F4C673"/>
<path fill-rule="evenodd" clip-rule="evenodd" d="M93.6173 129.568C93.8759 129.928 94.1727 130.254 94.5075 130.544C95.4529 131.221 96.4987 131.531 97.6445 131.475C97.3168 132.803 96.9565 134.119 96.5635 135.424C96.3032 136.126 95.8865 136.693 95.313 137.126C94.7021 137.282 94.0947 137.267 93.4901 137.081C92.4736 136.477 91.4562 135.872 90.438 135.265C89.7995 134.96 89.1353 134.756 88.4456 134.652C88.7283 134.553 89.0111 134.44 89.2934 134.312C90.2675 133.881 91.059 133.207 91.6673 132.292C92.0849 132.462 92.4452 132.371 92.7483 132.019C92.9933 131.179 93.2829 130.362 93.6173 129.568Z" fill="#F5C673"/>
<path fill-rule="evenodd" clip-rule="evenodd" d="M99.6369 130.975C100.081 131.032 100.519 131.123 100.951 131.248C101.478 132.117 101.993 132.995 102.498 133.88C103.216 135.135 104.071 136.277 105.063 137.307C105.471 137.692 105.91 138.032 106.377 138.329C106.391 138.616 106.406 138.904 106.42 139.191C106.377 140.81 106.349 142.429 106.335 144.048C104.368 144.67 102.403 145.305 100.442 145.954C100.525 144.762 100.059 143.922 99.0434 143.435C98.3139 143.182 97.5648 143.03 96.7967 142.981C94.9416 142.673 93.2884 141.887 91.8369 140.621C90.7695 139.628 90.0276 138.41 89.6113 136.967C89.5829 136.907 89.5829 136.846 89.6113 136.786C90.4837 137.317 91.3528 137.854 92.2184 138.397C94.7538 139.741 96.6687 139.083 97.9625 136.422C98.4182 135.104 98.7997 133.757 99.107 132.383C99.2516 131.9 99.4284 131.431 99.6369 130.975Z" fill="#EB5757"/>
<path fill-rule="evenodd" clip-rule="evenodd" d="M51.7345 162.704C51.6938 162.624 51.6798 162.533 51.6921 162.431C51.693 159.942 51.679 157.453 51.6497 154.965C51.6425 153.791 51.6705 152.618 51.7345 151.447C54.0258 150.387 56.1593 149.048 58.1356 147.43C60.7775 145.191 63.187 142.687 65.3634 139.917C66.8929 137.962 68.3414 135.942 69.7085 133.858C70.4186 133.729 71.1252 133.577 71.8281 133.404C72.3075 133.264 72.7811 133.105 73.2482 132.927C73.9799 136.435 75.8523 138.984 78.8651 140.576C79.7994 141.004 80.7744 141.238 81.7901 141.279C83.0067 141.284 84.0805 140.875 85.0119 140.054C86.1624 142.479 87.844 144.363 90.0564 145.705C91.5775 146.606 93.1743 147.302 94.8467 147.793C89.2133 149.712 83.5752 151.634 77.9325 153.557C69.1985 156.602 60.4659 159.65 51.7345 162.704Z" fill="#EB5757"/>
<path fill-rule="evenodd" clip-rule="evenodd" d="M158.392 135.424C159.205 135.879 159.848 136.529 160.32 137.376C161.081 138.747 161.717 140.184 162.228 141.688C163.155 144.483 164.031 147.298 164.856 150.13C165.766 153.468 166.657 156.812 167.527 160.162C167.987 161.815 168.461 163.465 168.947 165.109C168.942 165.152 168.928 165.19 168.905 165.223C168.107 165.551 167.301 165.869 166.488 166.176C162.505 167.55 158.52 168.92 154.534 170.284C154.104 168.913 153.729 167.521 153.411 166.108C152.584 162.317 151.778 158.519 150.994 154.715C150.553 152.763 150.072 150.826 149.553 148.905C148.935 146.114 147.706 143.678 145.865 141.597C145.373 141.055 144.843 140.563 144.275 140.122C149.001 138.618 153.706 137.052 158.392 135.424Z" fill="#DBDBDB"/>
<path fill-rule="evenodd" clip-rule="evenodd" d="M87.1738 136.377C87.3998 136.377 87.6261 136.377 87.8521 136.377C88.1959 138.771 89.2557 140.715 91.0314 142.21C92.3502 143.272 93.8055 144.028 95.3978 144.479C96.3431 144.676 97.2897 144.857 98.238 145.024C98.4232 145.082 98.5856 145.18 98.7255 145.319C98.759 145.461 98.745 145.597 98.6831 145.728C98.411 146.026 98.079 146.2 97.6869 146.25C96.3897 146.331 95.1324 146.134 93.9141 145.66C92.4583 145.099 91.0874 144.358 89.8021 143.435C87.975 142.034 86.7173 140.188 86.0292 137.898C86.1242 137.472 86.1878 137.041 86.22 136.604C86.543 136.53 86.861 136.455 87.1738 136.377Z" fill="#F3C573"/>
<path fill-rule="evenodd" clip-rule="evenodd" d="M147.878 149.45C147.921 149.45 147.963 149.45 148.006 149.45C148.422 151.013 148.803 152.587 149.15 154.17C145.669 155.506 142.179 156.83 138.68 158.142C130.61 161.022 122.541 163.898 114.474 166.766C111.32 167.942 108.183 169.145 105.063 170.375C105.002 170.365 104.946 170.342 104.893 170.307C99.6162 166.003 94.2324 161.857 88.7423 157.87C92.5796 156.46 96.4228 155.068 100.273 153.694C102.24 152.993 104.219 152.335 106.208 151.719C106.2 152.237 106.158 152.744 106.08 153.24C101.788 154.55 97.5212 155.972 93.2782 157.506C92.7449 157.841 92.6245 158.302 92.9179 158.891C93.182 159.142 93.4575 159.376 93.7445 159.594C96.5449 161.609 99.3571 163.607 102.18 165.586C103.291 166.4 104.379 167.247 105.445 168.128C105.619 168.247 105.81 168.315 106.017 168.332C109.304 167.073 112.604 165.84 115.915 164.633C116.421 164.435 116.626 164.05 116.53 163.475C116.378 163.107 116.116 162.911 115.746 162.885C115.444 162.945 115.147 163.028 114.855 163.135C113.338 163.689 111.826 164.257 110.32 164.837C109.735 164.445 109.155 164.044 108.582 163.634C108.525 163.604 108.525 163.574 108.582 163.543C118.108 160.345 127.589 157.001 137.026 153.512C140.656 152.179 144.273 150.825 147.878 149.45Z" fill="#DADADA"/>
<path fill-rule="evenodd" clip-rule="evenodd" d="M105.996 155.078C106.052 155.078 106.109 155.078 106.165 155.078C106.129 155.682 106.115 156.288 106.123 156.894C105.816 156.991 105.505 157.059 105.19 157.098C104.646 156.704 104.11 156.304 103.579 155.895C104.386 155.615 105.192 155.343 105.996 155.078Z" fill="#D8D8D8"/>
<path fill-rule="evenodd" clip-rule="evenodd" d="M101.333 156.576C101.438 156.567 101.537 156.59 101.629 156.644C102.152 157.03 102.675 157.416 103.198 157.801C102.628 158.005 102.063 158.216 101.502 158.437C100.901 158.017 100.308 157.586 99.7217 157.143C100.267 156.966 100.804 156.777 101.333 156.576Z" fill="#D8D8D8"/>
<path fill-rule="evenodd" clip-rule="evenodd" d="M97.6021 157.847C97.6602 157.84 97.717 157.847 97.7717 157.87C98.3652 158.309 98.9587 158.747 99.5521 159.186C98.8383 159.441 98.1316 159.713 97.4326 160.003C97.3762 160.033 97.3194 160.033 97.263 160.003C96.6411 159.549 96.0196 159.095 95.3978 158.641C96.1383 158.379 96.873 158.115 97.6021 157.847Z" fill="#D9D9D9"/>
<path fill-rule="evenodd" clip-rule="evenodd" d="M104.893 159.073C105.303 159.326 105.705 159.599 106.102 159.89C106.103 160.328 106.097 160.767 106.08 161.206C105.869 161.274 105.657 161.327 105.445 161.365C104.717 160.828 103.989 160.29 103.261 159.753C103.242 159.697 103.263 159.659 103.325 159.64C103.854 159.454 104.377 159.265 104.893 159.073Z" fill="#D8D8D8"/>
<path opacity="0.994" fill-rule="evenodd" clip-rule="evenodd" d="M74.4988 159.753C76.367 159.699 78.2178 159.873 80.052 160.275C81.2568 160.535 82.3166 161.095 83.2314 161.955C83.5684 162.336 83.8016 162.783 83.9309 163.294C83.8809 167.379 83.8529 171.464 83.8461 175.549C83.8249 176.291 83.7965 177.032 83.7613 177.774C83.7609 178.054 83.7185 178.326 83.6341 178.591C83.5786 178.703 83.501 178.794 83.401 178.863C83.3518 178.968 83.3022 179.074 83.2526 179.181C81.8982 180.424 80.3509 181.294 78.6107 181.791C75.8884 182.593 73.2601 182.336 70.7259 181.019C69.5936 180.371 68.6538 179.486 67.9069 178.364C67.8785 178.273 67.8505 178.182 67.8221 178.091C67.8056 177.59 67.7704 177.091 67.7161 176.593C65.3396 175.297 63.6652 173.315 62.6927 170.647C62.0984 168.768 62.056 166.877 62.5655 164.973C63.0399 163.618 63.9089 162.687 65.1726 162.182C66.143 161.891 67.0688 162.005 67.9493 162.522C68.1684 162.106 68.472 161.781 68.8607 161.546C70.6157 160.484 72.4949 159.886 74.4988 159.753ZM66.6987 167.107C66.5219 168.423 66.8259 169.604 67.6101 170.647C67.6385 169.739 67.6385 168.832 67.6101 167.924C67.4062 167.72 67.2155 167.501 67.0379 167.266C66.9395 167.175 66.8267 167.122 66.6987 167.107Z" fill="black"/>
<path fill-rule="evenodd" clip-rule="evenodd" d="M150.21 159.98C150.281 159.98 150.351 159.98 150.422 159.98C151.1 163.445 151.863 166.88 152.711 170.284C148.791 168.012 144.948 165.614 141.181 163.09C141.897 162.805 142.617 162.532 143.343 162.273C145.034 161.714 146.73 161.169 148.43 160.639C149.037 160.446 149.631 160.227 150.21 159.98Z" fill="#DADADA"/>
<path fill-rule="evenodd" clip-rule="evenodd" d="M101.163 160.434C101.431 160.561 101.686 160.72 101.926 160.911C102.483 161.318 103.034 161.734 103.579 162.159C102.89 162.43 102.197 162.703 101.502 162.976C100.717 162.415 99.9252 161.863 99.1282 161.319C99.0718 161.289 99.0718 161.259 99.1282 161.229C99.815 160.974 100.493 160.709 101.163 160.434Z" fill="#D9D9D9"/>
<path fill-rule="evenodd" clip-rule="evenodd" d="M74.7107 161.524C76.4246 161.502 78.1202 161.677 79.7977 162.046C80.5412 162.232 81.2195 162.565 81.8325 163.044C81.9618 163.167 82.075 163.303 82.1716 163.453C82.1606 163.51 82.1322 163.555 82.0868 163.589C81.6065 163.871 81.0978 164.083 80.5607 164.224C78.3441 164.893 76.0833 165.166 73.7781 165.041C72.7263 164.958 71.695 164.762 70.6835 164.451C70.1901 164.32 69.7734 164.055 69.433 163.657C69.346 163.511 69.3672 163.382 69.4965 163.271C70.2537 162.715 71.0731 162.306 71.9552 162.046C72.8607 161.764 73.7794 161.59 74.7107 161.524Z" fill="#737373"/>
<path fill-rule="evenodd" clip-rule="evenodd" d="M51.6921 162.431C51.6798 162.533 51.6938 162.624 51.7345 162.704C51.732 162.728 51.718 162.744 51.6921 162.749C51.637 162.637 51.637 162.531 51.6921 162.431Z" fill="#712B1C"/>
<path fill-rule="evenodd" clip-rule="evenodd" d="M105.19 163.385C105.235 163.378 105.277 163.386 105.317 163.407C106.292 164.119 107.267 164.829 108.242 165.541C108.214 165.571 108.186 165.601 108.158 165.631C107.492 165.839 106.842 166.081 106.208 166.358C106.137 166.388 106.066 166.388 105.996 166.358C105.099 165.613 104.181 164.902 103.24 164.224C103.891 163.939 104.541 163.659 105.19 163.385Z" fill="#D9D9D9"/>
<path fill-rule="evenodd" clip-rule="evenodd" d="M67.6737 173.552C67.6873 173.878 67.6733 174.196 67.6313 174.505C65.6449 173.081 64.4083 171.114 63.9221 168.605C63.8386 167.878 63.8386 167.152 63.9221 166.426C64.0662 165.58 64.4265 164.861 65.0031 164.27C65.9649 163.555 66.8479 163.653 67.6525 164.565C67.6877 164.899 67.6805 165.232 67.6313 165.563C66.4639 165.019 65.6093 165.367 65.0666 166.607C64.7534 168.581 65.1917 170.337 66.3808 171.873C66.7763 172.357 67.2002 172.811 67.6525 173.234C67.6737 173.339 67.6805 173.445 67.6737 173.552Z" fill="#737373"/>
<path fill-rule="evenodd" clip-rule="evenodd" d="M82.1716 165.518C82.2212 168.764 82.228 172.017 82.1928 175.277C82.1805 176.157 82.1381 177.034 82.0657 177.91C81.253 178.659 80.3416 179.242 79.3314 179.657C78.5705 179.951 77.7934 180.178 76.9999 180.338C74.7116 180.729 72.606 180.245 70.6835 178.886C70.2244 178.515 69.8217 178.084 69.4754 177.592C69.4313 177.003 69.4033 176.413 69.3906 175.822C69.349 173.552 69.3134 171.283 69.2846 169.013C69.3083 167.939 69.3363 166.864 69.3694 165.79C69.6729 165.982 69.9976 166.125 70.3444 166.222C72.5479 166.802 74.7807 166.969 77.0423 166.721C78.8066 166.547 80.5162 166.146 82.1716 165.518Z" fill="#737373"/>
<path fill-rule="evenodd" clip-rule="evenodd" d="M67.6737 173.552C67.7297 173.878 67.7297 174.211 67.6737 174.551C67.6478 174.545 67.6339 174.53 67.6313 174.505C67.6733 174.196 67.6873 173.879 67.6737 173.552Z" fill="#737373"/>
</svg>
