<svg width="213" height="227" viewBox="0 0 213 227" fill="none" xmlns="http://www.w3.org/2000/svg">
<path opacity="0.989" fill-rule="evenodd" clip-rule="evenodd" d="M180.689 78.4722C180.477 78.5664 180.257 78.5936 180.028 78.5539C170.923 75.4863 161.615 73.4342 152.104 72.3981C148.955 72.0969 145.801 72.0244 142.643 72.1802C141.671 72.2532 140.705 72.3714 139.744 72.5343C139.931 75.5762 139.838 78.6083 139.464 81.6317C139.116 83.9339 138.793 86.2398 138.498 88.5501C138.402 89.9453 138.64 91.2707 139.21 92.5269C139.413 92.8799 139.659 93.1975 139.947 93.4802C140.216 93.6376 140.461 93.8283 140.685 94.0522C140.864 94.4428 140.848 94.8241 140.634 95.1962C140.364 95.4495 140.05 95.5312 139.693 95.4413C139.465 95.3144 139.245 95.1782 139.032 95.0327C138.047 94.1617 137.395 93.0542 137.073 91.7097C136.81 90.5265 136.726 89.3281 136.819 88.1143C137.147 85.8454 137.469 83.5754 137.786 81.3049C138.161 78.0783 138.212 74.8463 137.938 71.6082C136.972 65.0227 133.963 59.8202 128.91 56.0009C125.951 53.8269 122.678 52.5558 119.093 52.1877C114.702 51.9279 110.701 53.1264 107.089 55.783C106.679 55.9356 106.306 55.8724 105.97 55.5924C105.78 55.217 105.771 54.8357 105.945 54.4484C107.193 53.403 108.557 52.5586 110.039 51.9153C116.751 49.2367 123.143 49.9266 129.215 53.9853C134.862 57.9871 138.321 63.5709 139.591 70.7366C141.054 70.4566 142.529 70.3019 144.016 70.2736C148.962 70.2185 153.879 70.5999 158.767 71.4176C166.026 72.598 173.163 74.3413 180.18 76.6472C180.916 76.7998 181.196 77.2628 181.02 78.0363C180.954 78.2248 180.843 78.3703 180.689 78.4722Z" fill="#010100"/>
<path fill-rule="evenodd" clip-rule="evenodd" d="M139.032 95.0327C137.57 95.3754 136.095 95.6298 134.607 95.7954C134.678 95.5568 134.67 95.3209 134.581 95.0872C133.502 93.8468 132.875 92.376 132.699 90.6747C132.638 90.0401 132.587 89.4043 132.547 88.768C132.202 88.1884 131.753 88.0702 131.199 88.414C131.087 88.5354 130.994 88.6716 130.919 88.8225C130.785 91.1601 131.31 93.3026 132.496 95.2506C132.702 95.498 132.896 95.7524 133.081 96.0133C131.623 96.1092 130.284 95.7366 129.062 94.8966C128.681 94.6062 128.342 94.2706 128.045 93.8888C127.738 92.023 127.153 90.2612 126.29 88.6046C125.952 88.22 125.554 88.1296 125.095 88.3322C124.942 88.1143 124.79 87.8964 124.637 87.6785C124.543 87.0237 124.187 86.7241 123.569 86.7797C121.041 88.609 118.26 89.7895 115.227 90.3206C112.924 90.6965 110.618 90.7145 108.31 90.3751C103.777 89.5509 100.988 86.7454 99.9429 81.9586C99.5106 78.6367 99.8498 75.4046 100.96 72.2619C101.446 70.863 102.04 69.5196 102.74 68.2307C102.839 67.7061 102.661 67.3341 102.206 67.114C101.799 66.9947 101.469 67.1129 101.214 67.4681C98.8122 71.7858 97.7949 76.4527 98.1627 81.4683C98.7385 85.9015 100.883 89.1156 104.597 91.1105C102.928 92.0497 101.25 92.9757 99.5614 93.8888C99.7883 91.9418 99.5594 90.0537 98.8748 88.2233C98.154 86.625 97.4755 85.0087 96.8402 83.375C95.824 80.2067 95.5015 76.9561 95.8738 73.6238C96.5355 67.5378 99.0447 62.5446 103.402 58.643C103.609 58.2759 103.634 57.8945 103.478 57.499C104.265 56.8017 105.096 56.166 105.97 55.5924C106.306 55.8724 106.679 55.9356 107.089 55.783C110.701 53.1264 114.702 51.9279 119.093 52.1877C122.678 52.5558 125.951 53.8269 128.91 56.0009C133.963 59.8202 136.972 65.0227 137.938 71.6082C138.212 74.8463 138.161 78.0783 137.786 81.3049C137.469 83.5754 137.147 85.8454 136.819 88.1143C136.726 89.3281 136.81 90.5265 137.073 91.7097C137.395 93.0542 138.047 94.1617 139.032 95.0327Z" fill="#FEFEFE"/>
<path opacity="0.994" fill-rule="evenodd" clip-rule="evenodd" d="M103.478 57.499C103.634 57.8945 103.609 58.2758 103.402 58.643C99.0446 62.5446 96.5355 67.5378 95.8738 73.6238C95.5015 76.9561 95.824 80.2066 96.8402 83.375C97.4755 85.0087 98.154 86.625 98.8748 88.2233C99.5594 90.0537 99.7883 91.9418 99.5614 93.8888C101.25 92.9757 102.928 92.0497 104.597 91.1105C100.883 89.1156 98.7384 85.9015 98.1627 81.4683C97.7949 76.4527 98.8122 71.7858 101.214 67.4681C101.469 67.1129 101.799 66.9947 102.206 67.114C102.661 67.3341 102.839 67.7061 102.74 68.2307C102.039 69.5196 101.446 70.863 100.96 72.2619C99.8498 75.4046 99.5106 78.6367 99.9429 81.9586C100.988 86.7454 103.777 89.5509 108.31 90.3751C110.618 90.7145 112.924 90.6965 115.227 90.3206C118.26 89.7895 121.041 88.609 123.569 86.7797C124.187 86.7241 124.543 87.0237 124.637 87.6785C124.611 87.8458 124.568 88.0092 124.51 88.1688C122.083 93.9705 119.675 99.7814 117.287 105.601C117.036 106.049 116.671 106.203 116.194 106.064C115.943 105.959 115.782 105.768 115.711 105.492C115.132 101.111 114.666 96.7166 114.312 92.309C114.029 92.3351 113.749 92.3711 113.473 92.4179C113.067 93.2879 112.66 94.1595 112.252 95.0327C112.143 95.334 112.16 95.6249 112.303 95.9044C112.574 96.5216 112.896 97.1023 113.269 97.6476C113.645 98.1041 114.001 98.5758 114.337 99.0639C114.376 99.2867 114.359 99.5046 114.286 99.7176C113.965 100.208 113.642 100.698 113.32 101.188C112.966 101.756 112.949 102.337 113.269 102.932C113.619 103.632 114.009 104.304 114.439 104.947C114.848 105.44 115.238 105.949 115.609 106.473C115.64 107.477 115.208 107.831 114.312 107.535C112.903 106.098 111.911 104.382 111.336 102.387C111.279 101.663 111.431 100.991 111.794 100.371C111.99 100.053 112.185 99.7351 112.379 99.418C111.766 98.578 111.232 97.6792 110.777 96.7215C110.495 96.0552 110.427 95.3656 110.573 94.6514C110.875 93.9149 111.188 93.1887 111.514 92.4724C110.07 92.5225 108.646 92.3683 107.242 92.0093C107.106 91.9728 106.971 91.9728 106.835 92.0093C103.773 93.6218 100.738 95.2741 97.7303 96.9666C100.295 97.3278 102.838 97.8181 105.36 98.4375C105.616 98.5045 105.853 98.6134 106.072 98.7643C106.211 98.9076 106.304 99.0797 106.352 99.2818C106.618 100.899 106.889 102.516 107.166 104.13C108.802 104.53 110.336 105.193 111.769 106.119C112.664 106.75 113.47 107.504 114.185 108.379C114.513 108.822 114.861 109.249 115.227 109.659C118.894 110.523 122.556 111.404 126.214 112.302C126.25 112.351 126.301 112.369 126.367 112.356C126.367 111.012 126.367 109.669 126.367 108.325C126.551 107.654 126.958 107.427 127.587 107.644C127.785 107.765 127.929 107.937 128.02 108.161C128.045 109.705 128.054 111.248 128.045 112.792C130.647 113.43 133.241 114.111 135.827 114.835C136.366 115.174 136.477 115.637 136.158 116.224C135.869 116.535 135.522 116.635 135.115 116.523C128.523 114.72 121.903 113.058 115.253 111.539C115.119 111.609 115.017 111.718 114.948 111.866C113.999 113.335 113.372 114.951 113.066 116.714C113.024 117.515 113.041 118.313 113.117 119.111C113.144 119.227 113.187 119.336 113.244 119.438C117.215 120.538 121.064 121.999 124.79 123.823C129.065 125.857 133.134 128.254 136.997 131.014C137.728 131.568 138.44 132.15 139.133 132.757C139.6 133.175 140.025 133.639 140.405 134.146C142.176 134.357 143.905 134.166 145.593 133.574C146.066 133.362 146.481 133.063 146.839 132.675C146.873 132.603 146.873 132.53 146.839 132.458C144.746 128.355 143 124.087 141.6 119.656C139.986 114.434 138.392 109.204 136.819 103.967C136.394 102.692 135.919 101.439 135.395 100.208C135.319 99.8081 135.429 99.4812 135.726 99.2274C136.177 98.9599 136.575 99.0323 136.921 99.4453C137.665 101.147 138.309 102.89 138.854 104.675C139.892 108.083 140.909 111.497 141.905 114.916C142.986 118.532 144.207 122.091 145.568 125.594C146.862 128.748 148.354 131.781 150.044 134.691C151.656 137.361 153.732 139.513 156.274 141.146C157.921 142.173 159.684 142.863 161.564 143.216C163.477 143.454 165.376 143.363 167.261 142.944C168.918 142.546 170.545 142.038 172.144 141.419C175.818 139.895 179.463 138.297 183.08 136.625C186.153 135.291 189.29 134.166 192.489 133.247C192.761 133.192 193.015 133.237 193.252 133.384C193.569 133.646 193.679 133.991 193.583 134.419C193.521 134.625 193.411 134.788 193.252 134.909C189.749 135.909 186.324 137.152 182.978 138.64C180.638 139.694 178.298 140.747 175.959 141.8C173.429 142.928 170.835 143.854 168.177 144.578C165.457 145.276 162.728 145.33 159.988 144.742C155.66 143.447 152.159 140.878 149.484 137.033C148.888 136.122 148.311 135.196 147.755 134.255C147.37 134.629 146.938 134.929 146.458 135.154C145.303 135.67 144.099 135.961 142.846 136.026C142.152 136.053 141.456 136.062 140.761 136.053C140.439 136.029 140.117 136.002 139.795 135.971C139.706 135.946 139.621 135.909 139.54 135.862C138.792 134.879 137.944 134.007 136.997 133.247C134.327 131.226 131.529 129.41 128.605 127.8C124.057 125.256 119.327 123.205 114.414 121.644C111.583 120.936 108.726 120.382 105.843 119.983C100.61 121.082 96.0411 123.543 92.1353 127.364C91.2452 128.317 90.3551 129.271 89.465 130.224C86.966 133.204 84.9569 136.536 83.4376 140.22C83.4854 140.301 83.5536 140.355 83.6411 140.384C93.0117 144.511 102.472 148.398 112.023 152.041C113.559 152.638 115.119 153.147 116.702 153.567C118.917 153.762 121.104 153.581 123.264 153.022C127.032 152.119 130.592 150.648 133.945 148.61C135.609 147.445 137.186 146.156 138.676 144.742C139.622 143.812 140.377 142.732 140.939 141.5C141.212 140.802 141.313 140.076 141.244 139.321C141.138 138.864 141.029 138.41 140.914 137.96C140.924 137.593 141.076 137.321 141.371 137.142C141.972 136.96 142.387 137.178 142.618 137.796C143.098 139.323 143.047 140.83 142.465 142.318C142.032 143.319 141.472 144.227 140.786 145.041C137.541 148.592 133.735 151.234 129.368 152.968C126.215 154.266 122.96 155.101 119.602 155.473C117.897 155.661 116.236 155.461 114.617 154.874C109.473 153.032 104.37 151.071 99.3071 148.991C93.7706 146.727 88.26 144.394 82.7764 141.991C82.7179 142.008 82.6757 142.044 82.6492 142.1C82.1096 143.492 81.5841 144.89 81.0725 146.294C80.5562 147.701 79.8527 148.981 78.9616 150.135C90.0321 155.134 101.188 159.91 112.43 164.462C116.944 166.291 121.522 167.926 126.163 169.365C127.414 169.741 128.685 169.986 129.978 170.1C130.664 170.06 131.342 169.961 132.012 169.801C135.058 168.981 138.059 168 141.015 166.859C150.486 163.224 159.878 159.374 169.194 155.31C176.946 151.958 184.66 148.516 192.337 144.987C192.91 144.761 193.326 144.943 193.583 145.532C193.677 145.993 193.55 146.365 193.202 146.648C178.569 153.331 163.819 159.705 148.95 165.769C144.329 167.649 139.649 169.356 134.912 170.89C133.608 171.303 132.285 171.63 130.944 171.871C129.724 171.998 128.52 171.889 127.333 171.544C124.084 170.669 120.88 169.634 117.72 168.439C111.522 166.087 105.368 163.618 99.2562 161.03C92.0611 157.958 84.8893 154.825 77.7409 151.633C75.4017 153.84 72.7567 155.538 69.8061 156.726C63.616 159.277 57.2413 160.021 50.6814 158.96C47.3049 158.527 43.9648 157.882 40.6612 157.026C40.4483 157.209 40.2618 157.418 40.1017 157.652C39.9228 157.801 39.7194 157.882 39.4914 157.898C37.8258 157.47 36.1643 157.025 34.5067 156.563C34.388 156.472 34.2693 156.382 34.1507 156.291C33.1304 155.993 32.1132 155.684 31.0988 155.365C30.7878 155.231 30.6097 154.986 30.5648 154.629C30.5586 153.936 30.5925 153.246 30.6665 152.559C30.7114 152.417 30.7877 152.299 30.8954 152.205C31.5252 151.657 32.1695 151.131 32.8282 150.625C32.926 150.581 33.0278 150.554 33.1334 150.543C34.2903 150.844 35.4433 151.162 36.5921 151.497C36.7538 151.521 36.9149 151.512 37.0753 151.47C38.7162 151.875 40.3523 152.301 41.9837 152.75C42.1776 152.865 42.3048 153.038 42.3652 153.267C42.3991 153.848 42.3991 154.429 42.3652 155.01C42.3017 155.178 42.2084 155.324 42.0854 155.446C46.4724 156.536 50.9145 157.217 55.4117 157.489C61.2799 157.67 66.8408 156.363 72.095 153.567C73.478 152.811 74.7496 151.885 75.9098 150.789C73.8295 149.874 71.7613 148.93 69.7044 147.956C69.3423 147.614 69.2573 147.205 69.4501 146.73C69.5783 146.569 69.7309 146.433 69.9079 146.322C70.0945 146.285 70.2807 146.285 70.4674 146.322C72.7333 147.363 75.0054 148.388 77.2831 149.399C78.1163 148.433 78.7861 147.344 79.2922 146.131C79.8904 144.496 80.5094 142.871 81.1488 141.255C79.515 140.525 77.9209 139.708 76.3676 138.804C76.0166 138.503 75.8808 138.113 75.9607 137.633C76.1061 137.414 76.2923 137.241 76.5202 137.115C76.6895 137.079 76.8594 137.079 77.0288 137.115C78.5466 138 80.1066 138.8 81.7083 139.512C81.7662 139.553 81.8171 139.544 81.8608 139.485C84.8216 132.419 89.3144 126.744 95.3397 122.461C97.268 121.192 99.3025 120.157 101.443 119.356C99.5416 119.005 97.6255 118.751 95.6958 118.593C95.4415 118.557 95.1871 118.557 94.9328 118.593C90.7162 120.47 86.5118 122.377 82.3186 124.313C80.6427 125.099 78.9809 125.917 77.334 126.765C76.5161 126.996 76.0837 126.66 76.0369 125.757C74.4144 127.125 73.4139 128.904 73.036 131.096C72.8366 132.31 73.0401 133.436 73.6464 134.473C74.0436 134.921 74.4505 135.357 74.8671 135.781C75.0024 136.165 74.9429 136.51 74.6891 136.816C74.4037 137.087 74.0817 137.151 73.7226 137.006C72.0848 135.795 71.271 134.115 71.2812 131.967C71.2847 131.398 71.3443 130.835 71.4592 130.278C71.5696 129.798 71.6881 129.326 71.8153 128.862C69.2665 130.531 66.6129 131.993 63.8551 133.247C63.1267 133.574 62.3811 133.846 61.6171 134.065C60.3129 134.373 59.5078 133.837 59.2011 132.458C59.1324 131.427 59.3781 130.493 59.9386 129.652C58.2128 130.322 56.6187 131.248 55.1574 132.43C54.6884 132.878 54.2729 133.378 53.9112 133.928C53.7668 134.183 53.665 134.455 53.606 134.745C53.4519 136.321 53.9351 137.619 55.0557 138.64C56.2459 139.605 57.5348 140.404 58.9213 141.037C61.64 142.293 64.3866 143.473 67.1612 144.578C67.5452 144.95 67.6134 145.377 67.3647 145.859C67.1073 146.219 66.7686 146.337 66.3474 146.213C63.7971 145.205 61.2707 144.134 58.7687 142.999C57.0119 142.222 55.3842 141.223 53.8858 140.002C52.0496 138.264 51.4647 136.131 52.131 133.601C52.515 132.68 53.0659 131.89 53.7841 131.232C54.7398 130.384 55.7744 129.657 56.8868 129.053C55.2362 129.071 53.5918 128.981 51.953 128.78C51.0503 128.696 50.245 128.36 49.5369 127.773C49.024 127.101 48.846 126.338 49.0029 125.485C48.3597 124.578 48.3343 123.652 48.9266 122.706C48.7568 121.544 49.1044 120.609 49.9693 119.901C50.4047 119.604 50.8625 119.35 51.3426 119.138C57.2774 117.026 63.1862 114.837 69.0686 112.574C69.211 112.367 69.3723 112.176 69.5518 112.002C71.2471 110.803 72.9765 109.659 74.7399 108.57C80.2591 105.188 85.8033 101.846 91.3724 98.5464C92.0646 98.2 92.5392 98.4086 92.7965 99.1729C92.8118 99.5853 92.6592 99.9029 92.3388 100.126C85.4279 104.154 78.5949 108.312 71.8407 112.601C74.5431 113.825 76.4169 115.904 77.4611 118.839C78.129 120.613 78.3492 122.448 78.1224 124.341C83.8104 121.632 89.5326 119.008 95.2889 116.469C95.3056 116.451 95.3229 116.432 95.3397 116.414C94.028 114.888 93.3754 113.082 93.3815 110.994C92.704 109.909 92.5682 108.747 92.9746 107.508C93.089 107.208 93.2416 106.936 93.4323 106.691C93.3535 105.661 93.7095 104.862 94.5005 104.294C94.2991 102.393 94.0534 100.505 93.763 98.6281C93.6999 98.286 93.6744 97.9407 93.6867 97.5931C93.7197 97.3676 93.8128 97.1769 93.9664 97.0211C95.0564 96.3418 96.1673 95.6973 97.298 95.0872C97.8967 93.7891 98.0665 92.4272 97.8066 91.0015C97.679 90.173 97.4582 89.3744 97.1454 88.6046C96.4455 87.1054 95.8011 85.5801 95.2126 84.0287C94.2268 81.0483 93.8367 77.9797 94.0427 74.8223C94.3972 68.8359 96.4491 63.6428 100.197 59.2422C100.873 58.5003 101.593 57.8193 102.359 57.1994C102.799 57.0267 103.172 57.1264 103.478 57.499Z" fill="#010100"/>
<path fill-rule="evenodd" clip-rule="evenodd" d="M107.801 64.7988C108.233 64.7716 108.564 64.953 108.793 65.3436C109.285 68.0483 110.336 70.4632 111.947 72.5888C112.444 73.1761 112.986 73.7023 113.574 74.1686C113.847 74.6671 113.787 75.1121 113.396 75.5033C113.137 75.6307 112.865 75.6672 112.583 75.6122C111.629 74.9177 110.806 74.0733 110.116 73.0791C108.671 70.9273 107.687 68.5484 107.166 65.9428C107.117 65.3931 107.329 65.0118 107.801 64.7988Z" fill="#020202"/>
<path fill-rule="evenodd" clip-rule="evenodd" d="M114.566 64.7988C114.891 64.7432 115.17 64.8336 115.405 65.0711C116.019 66.6754 116.765 68.2008 117.643 69.6471C119.574 72.4853 122.109 74.4279 125.248 75.476C126.336 75.105 127.421 75.1143 128.503 75.5032C129.677 76.0654 130.415 77.0187 130.715 78.3632C131.119 81.5228 130.008 83.838 127.384 85.3088C126.882 85.566 126.357 85.6929 125.807 85.6902C125.341 85.4826 125.146 85.11 125.222 84.5734C125.288 84.368 125.399 84.1954 125.553 84.0559C128.131 83.3177 129.292 81.5293 129.037 78.69C128.764 77.7264 128.163 77.1723 127.231 77.0285C126.96 76.992 126.689 76.992 126.417 77.0285C126.046 77.1522 125.672 77.2704 125.298 77.3826C120.542 75.9663 117.058 72.8976 114.846 68.1762C114.582 67.5634 114.328 66.9462 114.083 66.3241C113.781 65.6333 113.942 65.1245 114.566 64.7988Z" fill="#020202"/>
<path fill-rule="evenodd" clip-rule="evenodd" d="M180.689 78.4721C183.238 83.2066 185.349 88.1639 187.022 93.344C189.658 101.653 191.439 110.169 192.362 118.893C192.896 123.707 193.193 128.537 193.252 133.384C193.015 133.237 192.761 133.192 192.489 133.247C189.29 134.166 186.153 135.291 183.08 136.625C179.463 138.297 175.818 139.895 172.144 141.419C170.545 142.038 168.918 142.546 167.261 142.944C165.376 143.363 163.477 143.454 161.564 143.216C159.684 142.863 157.921 142.173 156.274 141.146C153.732 139.513 151.656 137.361 150.044 134.691C148.354 131.781 146.862 128.748 145.568 125.594C144.207 122.091 142.986 118.532 141.905 114.916C140.909 111.497 139.892 108.083 138.854 104.675C138.309 102.89 137.665 101.147 136.921 99.4453C136.575 99.0323 136.177 98.9599 135.726 99.2274C135.195 98.2544 134.653 97.2918 134.098 96.3401C134.318 96.2132 134.488 96.0313 134.607 95.7954C136.095 95.6298 137.57 95.3754 139.032 95.0327C139.245 95.1782 139.465 95.3144 139.693 95.4413C140.05 95.5312 140.364 95.4495 140.634 95.1962C140.848 94.8241 140.864 94.4428 140.685 94.0522C140.461 93.8283 140.216 93.6376 139.947 93.4802C139.659 93.1975 139.413 92.8799 139.21 92.5269C138.64 91.2706 138.402 89.9453 138.498 88.5501C138.793 86.2398 139.116 83.9339 139.464 81.6317C139.838 78.6083 139.931 75.5762 139.744 72.5343C140.705 72.3714 141.671 72.2532 142.643 72.1802C145.801 72.0244 148.955 72.0969 152.104 72.3981C161.615 73.4342 170.923 75.4863 180.028 78.5539C180.257 78.5936 180.477 78.5664 180.689 78.4721Z" fill="#E5E5E5"/>
<path fill-rule="evenodd" clip-rule="evenodd" d="M106.631 77.9274C107.153 77.8571 107.518 78.075 107.725 78.5811C107.773 79.4195 107.756 80.2546 107.674 81.087C107.51 81.4433 107.239 81.6247 106.86 81.6317C106.47 81.5952 106.216 81.3773 106.097 80.978C106.063 80.1429 106.063 79.3073 106.097 78.4722C106.237 78.2412 106.415 78.0598 106.631 77.9274Z" fill="#020202"/>
<path fill-rule="evenodd" clip-rule="evenodd" d="M111.311 78.1998C111.795 78.1148 112.16 78.2968 112.405 78.7446C112.439 79.5797 112.439 80.4153 112.405 81.2504C112.261 81.6318 111.998 81.8497 111.616 81.9041C111.215 81.8649 110.936 81.647 110.777 81.2504C110.743 80.4333 110.743 79.6162 110.777 78.799C110.897 78.5348 111.075 78.3349 111.311 78.1998Z" fill="#020202"/>
<path fill-rule="evenodd" clip-rule="evenodd" d="M140.761 83.9197C141.15 83.8435 141.48 83.9524 141.753 84.2466C142.506 85.7071 143.167 87.2139 143.737 88.7681C144.479 90.7728 145.191 92.7884 145.873 94.8149C147.798 100.916 149.764 106.999 151.773 113.064C152.734 115.595 153.667 118.137 154.571 120.691C155.968 124.396 157.867 127.756 160.267 130.769C161.941 132.708 163.849 134.315 165.989 135.59C167.053 136.168 168.121 136.731 169.194 137.279C169.601 137.751 169.601 138.223 169.194 138.695C168.925 138.867 168.637 138.922 168.329 138.858C165.26 137.366 162.48 135.423 159.988 133.03C156.97 129.918 154.706 126.259 153.197 122.053C152.169 119.076 151.101 116.116 149.993 113.173C148.183 107.665 146.402 102.145 144.652 96.6126C143.731 93.764 142.731 90.9493 141.651 88.1688C141.234 87.1485 140.776 86.1494 140.278 85.1727C140.13 84.617 140.292 84.1992 140.761 83.9197Z" fill="#020100"/>
<path fill-rule="evenodd" clip-rule="evenodd" d="M124.637 87.6785C124.79 87.8964 124.942 88.1143 125.095 88.3322C124.783 88.6008 124.673 88.9462 124.764 89.3673C125.457 90.7248 125.966 92.1591 126.29 93.6708C126.345 93.9781 126.362 94.287 126.341 94.5969C125.898 95.2359 125.397 95.8259 124.841 96.3674C123.781 97.3572 122.721 98.3465 121.662 99.3363C121.541 99.5755 121.507 99.8299 121.56 100.099C121.917 100.774 122.205 101.482 122.425 102.224C122.459 102.405 122.459 102.587 122.425 102.768C121.703 103.45 120.931 104.058 120.11 104.593C118.99 105.338 117.837 106.029 116.652 106.663C116.298 107.052 116.255 107.479 116.524 107.943C116.777 108.25 117.091 108.349 117.465 108.243C119.396 107.228 121.227 106.048 122.959 104.702C123.473 104.315 123.855 103.816 124.103 103.204C124.205 102.097 123.993 101.062 123.467 100.099C124.389 99.2481 125.305 98.3857 126.214 97.5114C126.805 96.8969 127.339 96.2339 127.816 95.523C128.014 94.9995 128.09 94.4548 128.045 93.8888C128.342 94.2706 128.681 94.6062 129.062 94.8966C130.284 95.7366 131.623 96.1092 133.081 96.0133C133.359 96.344 133.698 96.4529 134.098 96.3402C134.653 97.2918 135.195 98.2544 135.726 99.2274C135.429 99.4812 135.319 99.8081 135.395 100.208C135.919 101.439 136.394 102.692 136.819 103.967C138.392 109.204 139.986 114.434 141.6 119.656C143 124.087 144.746 128.355 146.839 132.458C146.873 132.53 146.873 132.603 146.839 132.675C146.481 133.063 146.066 133.362 145.593 133.574C143.905 134.166 142.176 134.357 140.405 134.146C140.025 133.639 139.6 133.175 139.133 132.757C138.44 132.15 137.728 131.568 136.997 131.014C133.134 128.254 129.065 125.857 124.79 123.823C121.064 121.999 117.215 120.538 113.244 119.438C113.187 119.336 113.144 119.227 113.117 119.111C113.041 118.313 113.024 117.515 113.066 116.714C113.372 114.951 113.999 113.335 114.948 111.866C115.017 111.718 115.119 111.609 115.253 111.539C121.903 113.058 128.523 114.72 135.115 116.523C135.522 116.635 135.869 116.535 136.158 116.224C136.477 115.637 136.366 115.174 135.827 114.835C133.241 114.111 130.647 113.43 128.045 112.792C128.054 111.248 128.045 109.705 128.02 108.161C127.929 107.937 127.785 107.765 127.587 107.644C126.958 107.427 126.551 107.654 126.367 108.325C126.349 109.661 126.298 110.986 126.214 112.302C122.556 111.404 118.894 110.523 115.227 109.659C114.861 109.249 114.513 108.822 114.185 108.379C113.47 107.504 112.664 106.75 111.769 106.119C110.336 105.193 108.802 104.53 107.166 104.13C106.889 102.516 106.618 100.899 106.352 99.2818C106.304 99.0797 106.211 98.9076 106.072 98.7643C105.853 98.6134 105.616 98.5045 105.36 98.4375C102.838 97.8181 100.295 97.3278 97.7303 96.9666C100.738 95.2741 103.773 93.6218 106.835 92.0093C106.971 91.9728 107.106 91.9728 107.242 92.0093C108.646 92.3683 110.07 92.5225 111.514 92.4724C111.188 93.1887 110.875 93.9149 110.573 94.6514C110.427 95.3656 110.495 96.0552 110.777 96.7215C111.232 97.6792 111.766 98.578 112.379 99.418C112.185 99.7351 111.99 100.053 111.794 100.371C111.432 100.991 111.279 101.663 111.336 102.387C111.911 104.382 112.903 106.098 114.312 107.535C115.208 107.831 115.64 107.477 115.609 106.473C115.238 105.949 114.848 105.44 114.439 104.947C114.009 104.304 113.619 103.632 113.269 102.932C112.949 102.337 112.966 101.756 113.32 101.188C113.642 100.698 113.965 100.208 114.286 99.7176C114.359 99.5046 114.377 99.2867 114.337 99.0639C114.001 98.5758 113.645 98.1041 113.269 97.6476C112.896 97.1023 112.574 96.5216 112.303 95.9044C112.16 95.6249 112.143 95.334 112.252 95.0327C112.66 94.1595 113.067 93.2879 113.473 92.4179C113.749 92.3711 114.029 92.3351 114.312 92.309C114.666 96.7166 115.132 101.111 115.711 105.492C115.782 105.768 115.943 105.959 116.194 106.064C116.671 106.203 117.036 106.049 117.287 105.601C119.675 99.7814 122.083 93.9705 124.51 88.1688C124.568 88.0092 124.611 87.8458 124.637 87.6785Z" fill="#EB5757"/>
<path fill-rule="evenodd" clip-rule="evenodd" d="M128.045 93.8888C128.09 94.4548 128.014 94.9996 127.816 95.5231C127.339 96.234 126.805 96.8969 126.214 97.5114C125.305 98.3858 124.389 99.2481 123.467 100.099C123.993 101.062 124.205 102.097 124.103 103.204C123.855 103.816 123.473 104.315 122.959 104.702C121.227 106.048 119.396 107.228 117.465 108.243C117.091 108.349 116.777 108.25 116.524 107.944C116.255 107.479 116.298 107.052 116.652 106.663C117.837 106.029 118.99 105.338 120.11 104.593C120.931 104.058 121.703 103.45 122.425 102.768C122.459 102.587 122.459 102.405 122.425 102.224C122.205 101.482 121.917 100.774 121.56 100.099C121.507 99.8299 121.541 99.5755 121.662 99.3364C122.721 98.3465 123.781 97.3573 124.841 96.3674C125.397 95.826 125.898 95.236 126.341 94.597C126.362 94.287 126.345 93.9781 126.29 93.6709C125.966 92.1592 125.457 90.7249 124.764 89.3673C124.673 88.9462 124.783 88.6008 125.095 88.3323C125.554 88.1296 125.952 88.2201 126.29 88.6047C127.153 90.2613 127.738 92.023 128.045 93.8888Z" fill="#020100"/>
<path fill-rule="evenodd" clip-rule="evenodd" d="M134.607 95.7954C134.488 96.0313 134.318 96.2132 134.098 96.3402C133.698 96.4529 133.359 96.344 133.081 96.0133C132.896 95.7524 132.702 95.498 132.496 95.2507C131.31 93.3026 130.785 91.1601 130.919 88.8225C130.994 88.6716 131.087 88.5355 131.199 88.414C131.753 88.0702 132.202 88.1884 132.547 88.7681C132.587 89.4043 132.638 90.0401 132.699 90.6747C132.875 92.376 133.502 93.8468 134.581 95.0872C134.67 95.3209 134.678 95.5568 134.607 95.7954Z" fill="#030202"/>
<path fill-rule="evenodd" clip-rule="evenodd" d="M121.789 89.9665C121.834 89.9594 121.867 89.9774 121.891 90.021C120.241 93.9367 118.604 97.859 116.982 101.788C116.545 98.5323 116.231 95.2637 116.041 91.9821C118.052 91.6035 119.967 90.9313 121.789 89.9665Z" fill="#FDFDFD"/>
<path fill-rule="evenodd" clip-rule="evenodd" d="M93.763 98.6282C94.0534 100.505 94.2991 102.394 94.5005 104.294C93.7096 104.862 93.3535 105.662 93.4324 106.691C93.2416 106.936 93.089 107.208 92.9746 107.508C92.5682 108.747 92.704 109.909 93.3815 110.994C93.3754 113.082 94.028 114.888 95.3397 116.414C95.323 116.432 95.3057 116.451 95.2889 116.469C89.5326 119.008 83.8105 121.632 78.1224 124.341C78.3492 122.448 78.129 120.613 77.4611 118.839C76.4169 115.904 74.5431 113.825 71.8407 112.601C78.5949 108.312 85.4279 104.154 92.3388 100.126C92.6592 99.9029 92.8118 99.5853 92.7966 99.1729C93.1119 98.9768 93.4344 98.7954 93.763 98.6282Z" fill="#EB5757"/>
<path fill-rule="evenodd" clip-rule="evenodd" d="M95.4923 98.5737C98.6123 98.8766 101.698 99.4028 104.75 100.153C105.195 102.636 105.601 105.123 105.97 107.617C104.465 107.642 102.972 107.506 101.494 107.208C100.564 106.71 99.6484 106.183 98.7476 105.628C97.946 105.181 97.1322 104.763 96.3061 104.375C96.0045 102.449 95.7329 100.515 95.4923 98.5737Z" fill="#E5E5E5"/>
<path fill-rule="evenodd" clip-rule="evenodd" d="M95.2889 105.928C96.2105 106.313 97.1093 106.757 97.9847 107.263C98.8412 107.785 99.7059 108.293 100.579 108.788C101.288 109.049 102.017 109.212 102.766 109.278C104.713 109.48 106.663 109.516 108.615 109.387C109.133 109.422 109.498 109.195 109.709 108.706C109.788 108.029 109.517 107.63 108.895 107.508C108.5 107.592 108.102 107.628 107.7 107.617C107.648 107.142 107.581 106.67 107.496 106.2C109.539 106.663 111.276 107.716 112.71 109.36C112.996 109.757 113.301 110.138 113.625 110.504C113.652 110.601 113.635 110.692 113.574 110.776C112.348 112.645 111.602 114.715 111.336 116.986C111.303 117.677 111.311 118.367 111.362 119.057C107.219 118.333 103.065 117.689 98.9002 117.123C97.448 116.239 96.3204 115.013 95.5178 113.446C95.4837 113.391 95.4837 113.337 95.5178 113.282C97.4908 115.115 99.771 116.268 102.359 116.741C102.697 116.802 103.036 116.82 103.376 116.796C103.898 116.575 104.093 116.166 103.961 115.57C103.851 115.379 103.707 115.225 103.529 115.107C100.718 114.746 98.2766 113.548 96.2044 111.512C95.738 111.012 95.2721 110.513 94.8057 110.014C94.5005 109.563 94.3988 109.072 94.5005 108.543C96.1032 110.278 97.9597 111.612 100.07 112.547C101.07 112.964 102.104 113.146 103.173 113.091C103.738 112.748 103.866 112.266 103.554 111.648C103.432 111.514 103.288 111.414 103.122 111.348C101.778 111.306 100.523 110.925 99.358 110.204C97.9964 109.364 96.7502 108.356 95.6195 107.181C95.444 106.992 95.3082 106.774 95.2126 106.527C95.1622 106.311 95.1877 106.111 95.2889 105.928Z" fill="#FDFDFD"/>
<path fill-rule="evenodd" clip-rule="evenodd" d="M126.367 108.325C126.367 109.669 126.367 111.012 126.367 112.356C126.301 112.369 126.25 112.351 126.214 112.302C126.298 110.986 126.349 109.661 126.367 108.325Z" fill="#7E2A00"/>
<path fill-rule="evenodd" clip-rule="evenodd" d="M70.3656 113.99C73.6341 115.158 75.6265 117.555 76.3421 121.181C76.4601 121.683 76.511 122.192 76.4947 122.706C75.9774 123.405 75.3925 124.032 74.7399 124.586C71.6306 126.984 68.3245 129.054 64.8215 130.796C63.6654 131.39 62.4782 131.899 61.261 132.321C61.1435 132.349 61.025 132.357 60.905 132.349C60.8602 131.776 60.9874 131.249 61.2865 130.769C61.5525 130.302 61.8577 129.866 62.202 129.461C62.729 128.951 63.2376 128.425 63.7279 127.882C63.8983 127.415 63.8052 127.025 63.4482 126.71C63.2905 126.614 63.1211 126.569 62.9395 126.574C60.0556 127.031 57.1563 127.222 54.2418 127.146C53.279 127.127 52.3299 126.999 51.3935 126.765C51.1829 126.696 50.9877 126.596 50.8085 126.465C50.5619 126.029 50.6721 125.748 51.1391 125.621C51.3869 125.523 51.6412 125.45 51.9021 125.403C54.4473 125.037 56.9905 124.656 59.5317 124.259C60.8109 124.048 62.0825 123.794 63.3464 123.496C63.8647 123.304 64.0768 122.913 63.9822 122.325C63.7625 121.822 63.3983 121.631 62.8887 121.753C59.2438 122.472 55.5816 123.071 51.9021 123.551C51.3106 123.65 50.751 123.804 50.2236 124.014C50.3277 123.766 50.4803 123.557 50.6814 123.387C50.9974 123.172 51.3365 123.008 51.6987 122.897C54.0709 122.374 56.4447 121.866 58.8196 121.372C59.9457 121.116 61.0647 120.825 62.1766 120.5C62.6674 120.129 62.7605 119.666 62.4563 119.111C62.2132 118.839 61.9167 118.739 61.5662 118.811C58.3104 119.626 55.0384 120.352 51.7495 120.99C56.8578 119.112 61.9609 117.224 67.0595 115.325C68.1765 114.905 69.2787 114.46 70.3656 113.99Z" fill="#FDFDFD"/>
<path opacity="0.992" fill-rule="evenodd" clip-rule="evenodd" d="M31.7092 114.099C32.238 113.988 32.6195 114.187 32.8536 114.698C32.8706 120.382 32.8876 126.066 32.9045 131.749C33.3255 131.864 33.7409 132 34.1507 132.158C34.3773 132.344 34.5045 132.589 34.5321 132.893C34.5817 135.365 34.5647 137.834 34.4813 140.302C34.4101 140.487 34.2998 140.642 34.1507 140.765C32.2285 141.767 30.3126 142.784 28.4031 143.816C28.2044 143.894 28.0009 143.912 27.7927 143.87C27.4629 143.722 27.1238 143.631 26.7754 143.598C24.4231 144.807 22.0664 146.005 19.7054 147.193C19.1496 147.336 18.7681 147.127 18.5609 146.567C18.5103 137.811 18.5273 129.059 18.6118 120.309C18.7189 120.056 18.8969 119.884 19.1459 119.792C23.3491 117.92 27.5369 116.022 31.7092 114.099Z" fill="black"/>
<path fill-rule="evenodd" clip-rule="evenodd" d="M31.0989 116.442C31.1497 121.39 31.1667 126.347 31.1497 131.314C30.3322 131.104 29.5184 130.877 28.7083 130.633C28.5726 130.596 28.437 130.596 28.3013 130.633C26.4592 131.483 24.6111 132.318 22.7572 133.138C22.521 133.282 22.3599 133.491 22.274 133.765C22.2655 135.018 22.2571 136.271 22.2486 137.524C22.2411 138.852 22.2665 140.177 22.3249 141.501C22.4384 141.785 22.6333 141.976 22.9098 142.073C23.4561 142.262 23.9987 142.461 24.5374 142.672C23.1318 143.388 21.7245 144.106 20.3157 144.824C20.2479 136.979 20.2479 129.135 20.3157 121.29C23.9031 119.653 27.4974 118.036 31.0989 116.442Z" fill="#FEFEFE"/>
<path fill-rule="evenodd" clip-rule="evenodd" d="M31.0988 116.442C31.1019 116.412 31.1188 116.394 31.1497 116.387C31.2175 121.372 31.2175 126.347 31.1497 131.314C31.1666 126.347 31.1497 121.39 31.0988 116.442Z" fill="#3F3F3F"/>
<path fill-rule="evenodd" clip-rule="evenodd" d="M75.9607 137.633C75.5268 137.373 75.1031 137.101 74.6891 136.816C74.9429 136.51 75.0024 136.165 74.8671 135.781C74.4505 135.357 74.0436 134.921 73.6464 134.473C73.0401 133.436 72.8366 132.31 73.036 131.096C73.4139 128.904 74.4144 127.125 76.0369 125.757C76.0837 126.66 76.5161 126.996 77.334 126.765C78.9809 125.917 80.6427 125.1 82.3186 124.313C86.5118 122.377 90.7162 120.47 94.9328 118.593C95.1871 118.557 95.4415 118.557 95.6958 118.593C97.6255 118.751 99.5416 119.005 101.443 119.356C99.3025 120.157 97.268 121.193 95.3397 122.461C89.3144 126.744 84.8216 132.419 81.8608 139.485C81.8171 139.544 81.7662 139.553 81.7083 139.512C80.1066 138.8 78.5466 138 77.0288 137.115C76.8594 137.079 76.6895 137.079 76.5202 137.115C76.2923 137.241 76.1061 137.414 75.9607 137.633Z" fill="#E5E5E5"/>
<path fill-rule="evenodd" clip-rule="evenodd" d="M140.761 136.053C141.016 136.381 141.22 136.745 141.371 137.142C141.076 137.321 140.924 137.593 140.914 137.96C141.029 138.41 141.138 138.864 141.244 139.321C141.313 140.076 141.212 140.802 140.939 141.5C140.377 142.732 139.622 143.812 138.676 144.742C137.186 146.157 135.609 147.445 133.945 148.61C130.592 150.648 127.032 152.119 123.264 153.022C121.104 153.581 118.917 153.762 116.702 153.567C115.119 153.147 113.559 152.638 112.023 152.042C102.472 148.398 93.0117 144.511 83.6411 140.384C83.5536 140.355 83.4854 140.301 83.4376 140.22C84.9569 136.536 86.966 133.204 89.465 130.224C90.3551 129.271 91.2452 128.317 92.1353 127.364C96.0411 123.543 100.61 121.082 105.843 119.983C108.726 120.382 111.583 120.936 114.414 121.644C119.327 123.205 124.057 125.256 128.605 127.8C131.529 129.41 134.327 131.226 136.997 133.247C137.944 134.007 138.792 134.879 139.54 135.862C139.621 135.909 139.706 135.946 139.795 135.971C140.117 136.002 140.439 136.029 140.761 136.053Z" fill="#E5E5E5"/>
<path fill-rule="evenodd" clip-rule="evenodd" d="M27.2841 122.489C27.8119 122.383 28.1934 122.582 28.4285 123.088C28.4624 123.941 28.4624 124.794 28.4285 125.648C28.146 126.321 27.6967 126.494 27.0806 126.166C26.9481 126.06 26.8548 125.924 26.8009 125.757C26.7669 124.849 26.7669 123.941 26.8009 123.033C26.9037 122.787 27.0648 122.606 27.2841 122.489Z" fill="#010101"/>
<path fill-rule="evenodd" clip-rule="evenodd" d="M24.2831 123.741C24.8396 123.627 25.221 123.845 25.4275 124.395C25.4615 125.249 25.4615 126.102 25.4275 126.956C25.1508 127.569 24.7185 127.742 24.1305 127.473C23.9472 127.325 23.8201 127.135 23.749 126.901C23.7151 126.084 23.7151 125.267 23.749 124.45C23.8317 124.126 24.0097 123.889 24.2831 123.741Z" fill="#040404"/>
<path fill-rule="evenodd" clip-rule="evenodd" d="M74.6891 136.816C75.1031 137.101 75.5268 137.373 75.9607 137.633C75.8808 138.113 76.0166 138.503 76.3676 138.804C77.9209 139.708 79.515 140.525 81.1488 141.255C80.5094 142.871 79.8904 144.496 79.2922 146.131C78.7861 147.344 78.1163 148.433 77.2831 149.399C75.0054 148.388 72.7333 147.363 70.4674 146.322C70.2807 146.285 70.0945 146.285 69.9079 146.322C69.7309 146.433 69.5783 146.569 69.4501 146.73C68.7548 146.44 68.06 146.149 67.3647 145.859C67.6134 145.377 67.5452 144.95 67.1612 144.578C64.3866 143.473 61.64 142.293 58.9213 141.037C57.5348 140.404 56.2459 139.605 55.0557 138.64C53.9351 137.619 53.4519 136.321 53.606 134.745C53.665 134.455 53.7668 134.183 53.9112 133.928C54.2729 133.378 54.6884 132.878 55.1574 132.43C56.6187 131.248 58.2128 130.322 59.9386 129.652C59.3781 130.493 59.1324 131.427 59.2011 132.458C59.5078 133.837 60.3129 134.373 61.6171 134.065C62.3811 133.846 63.1267 133.574 63.8551 133.247C66.6129 131.993 69.2665 130.531 71.8153 128.862C71.6881 129.326 71.5696 129.798 71.4592 130.278C71.3443 130.835 71.2847 131.398 71.2812 131.967C71.271 134.115 72.0848 135.795 73.7226 137.006C74.0817 137.151 74.4037 137.087 74.6891 136.816Z" fill="#FEFEFE"/>
<path fill-rule="evenodd" clip-rule="evenodd" d="M28.5048 132.512C29.3378 132.672 30.1516 132.898 30.9463 133.193C29.9441 133.657 28.9438 134.12 27.9453 134.582C27.1808 134.342 26.4179 134.097 25.6564 133.847C26.6072 133.396 27.5567 132.95 28.5048 132.512Z" fill="#737373"/>
<path fill-rule="evenodd" clip-rule="evenodd" d="M193.252 134.909C193.34 137.576 193.196 140.226 192.82 142.862C192.698 143.582 192.538 144.29 192.337 144.987C184.66 148.516 176.946 151.958 169.194 155.31C159.878 159.375 150.486 163.224 141.015 166.859C138.059 168 135.058 168.981 132.012 169.801C131.342 169.961 130.664 170.06 129.978 170.1C128.685 169.986 127.414 169.741 126.163 169.365C121.522 167.926 116.944 166.291 112.43 164.462C101.188 159.91 90.0321 155.134 78.9616 150.135C79.8527 148.981 80.5562 147.701 81.0725 146.294C81.5841 144.89 82.1096 143.492 82.6492 142.1C82.6757 142.044 82.7179 142.008 82.7764 141.991C88.26 144.394 93.7706 146.727 99.3071 148.991C104.37 151.071 109.473 153.032 114.617 154.874C116.236 155.462 117.897 155.661 119.602 155.474C122.96 155.101 126.215 154.266 129.368 152.968C133.735 151.234 137.541 148.592 140.786 145.041C141.472 144.227 142.032 143.319 142.465 142.318C143.047 140.83 143.098 139.323 142.618 137.796C142.387 137.178 141.972 136.96 141.371 137.142C141.22 136.745 141.016 136.381 140.761 136.053C141.456 136.062 142.152 136.053 142.846 136.026C144.099 135.961 145.303 135.671 146.458 135.154C146.938 134.929 147.37 134.629 147.755 134.255C148.311 135.196 148.888 136.122 149.484 137.034C152.159 140.878 155.66 143.447 159.988 144.742C162.728 145.33 165.457 145.276 168.177 144.578C170.835 143.854 173.429 142.928 175.959 141.8C178.298 140.747 180.638 139.694 182.978 138.641C186.324 137.152 189.749 135.909 193.252 134.909Z" fill="#FEFEFE"/>
<path fill-rule="evenodd" clip-rule="evenodd" d="M32.6756 134.364C32.7265 134.364 32.7774 134.364 32.8282 134.364C32.8282 136.053 32.8282 137.742 32.8282 139.43C31.4995 140.083 30.1855 140.773 28.8863 141.5C28.8524 139.721 28.8524 137.942 28.8863 136.162C30.1558 135.567 31.4189 134.968 32.6756 134.364Z" fill="#737373"/>
<path fill-rule="evenodd" clip-rule="evenodd" d="M24.0288 135.236C23.978 136.988 23.961 138.749 23.9779 140.52C23.9103 138.749 23.9103 136.97 23.9779 135.181C24.0088 135.188 24.0257 135.206 24.0288 135.236Z" fill="#3E3100"/>
<path fill-rule="evenodd" clip-rule="evenodd" d="M24.0288 135.236C25.0603 135.571 26.0945 135.898 27.1315 136.216C27.1823 138.032 27.1993 139.848 27.1823 141.664C26.1033 141.315 25.0352 140.934 23.9779 140.52C23.961 138.75 23.978 136.988 24.0288 135.236Z" fill="#737373"/>
<path fill-rule="evenodd" clip-rule="evenodd" d="M135.98 136.107C136.702 136.073 137.066 136.436 137.073 137.197C136.985 137.564 136.773 137.809 136.438 137.932C131.372 138.785 126.778 140.818 122.654 144.034C121.753 144.779 120.914 145.606 120.136 146.512C119.549 147.224 119.092 148.023 118.762 148.909C118.69 149.253 118.622 149.599 118.559 149.944C118.318 150.363 117.971 150.518 117.516 150.407C117.135 150.208 116.949 149.882 116.957 149.427C117.106 148.273 117.505 147.23 118.152 146.294C119.406 144.57 120.872 143.091 122.552 141.855C126.643 138.92 131.119 137.004 135.98 136.107Z" fill="#020100"/>
<path fill-rule="evenodd" clip-rule="evenodd" d="M31.0988 136.652C31.7203 136.593 32.0932 136.883 32.2179 137.524C32.2107 137.847 32.092 138.11 31.8618 138.314C31.555 138.478 31.2499 138.642 30.9463 138.804C30.0263 139.017 29.6279 138.627 29.751 137.633C29.821 137.51 29.8973 137.392 29.9798 137.279C30.364 137.082 30.737 136.873 31.0988 136.652Z" fill="#040200"/>
<path fill-rule="evenodd" clip-rule="evenodd" d="M33.3369 152.505C33.9175 152.66 34.4939 152.833 35.0662 153.022C34.7695 153.304 34.4728 153.585 34.1761 153.866C34.0893 153.998 34.0469 154.143 34.049 154.302C33.4713 154.177 32.9034 154.014 32.345 153.812C32.3111 153.667 32.3111 153.522 32.345 153.376C32.6853 153.093 33.0159 152.803 33.3369 152.505Z" fill="#FAFAFA"/>
</svg>
