<svg width="80" height="80" viewBox="0 0 80 80" fill="none" xmlns="http://www.w3.org/2000/svg">
<style>
    path {
      stroke: #181818;
    }
    @media (prefers-color-scheme: dark) {
      path {
        stroke: white; 
      }
    }
</style>
<rect width="80" height="80" fill="white"/>
<path d="M40 17.5H19C17.1435 17.5 15.363 18.2375 14.0503 19.5503C12.7375 20.863 12 22.6435 12 24.5V35" stroke="black" stroke-width="2.66667" stroke-linecap="round" stroke-linejoin="round"/>
<path d="M36.5 21L40 17.5L37.5 15L36.5 14M12 49V63C12 64.8565 12.7375 66.637 14.0503 67.9497C15.363 69.2625 17.1435 70 19 70H61C62.8565 70 64.637 69.2625 65.9497 67.9497C67.2625 66.637 68 64.8565 68 63V24.5C68 22.6435 67.2625 20.863 65.9497 19.5503C64.637 18.2375 62.8565 17.5 61 17.5H54" stroke="black" stroke-width="2.66667" stroke-linecap="round" stroke-linejoin="round"/>
<path d="M50.3966 50.57L41.4453 42L50.3966 33.43C50.4017 33.4243 50.4071 33.4188 50.4128 33.4138C50.6923 33.134 50.8827 32.7778 50.9598 32.3899C51.0369 32.0021 50.9973 31.6001 50.846 31.2348C50.6947 30.8694 50.4385 30.5571 50.1097 30.3374C49.781 30.1176 49.3945 30.0002 48.9991 30H30.9991C30.6036 30.0002 30.2171 30.1176 29.8884 30.3374C29.5597 30.5571 29.3035 30.8694 29.1522 31.2348C29.0009 31.6001 28.9613 32.0021 29.0384 32.3899C29.1155 32.7778 29.3058 33.134 29.5853 33.4138C29.591 33.4188 29.5965 33.4243 29.6016 33.43L38.5528 42L29.6016 50.57C29.5965 50.5757 29.591 50.5812 29.5853 50.5863C29.3058 50.866 29.1155 51.2222 29.0384 51.6101C28.9613 51.9979 29.0009 52.3999 29.1522 52.7652C29.3035 53.1306 29.5597 53.4429 29.8884 53.6626C30.2171 53.8824 30.6036 53.9998 30.9991 54H48.9991C49.3946 54.0001 49.7813 53.8828 50.1102 53.6632C50.4391 53.4435 50.6955 53.1312 50.847 52.7658C50.9984 52.4004 51.0381 51.9983 50.9611 51.6104C50.884 51.2224 50.6937 50.866 50.4141 50.5863C50.4079 50.5812 50.4021 50.5758 50.3966 50.57ZM48.9991 32L46.9116 34H33.0891L30.9991 32H48.9991ZM30.9991 52L39.9991 43.385L48.9991 52H30.9991Z" fill="black"/>
</svg>
