<svg width="213" height="227" viewBox="0 0 213 227" fill="none" xmlns="http://www.w3.org/2000/svg">
<path d="M79.7821 142.653C79.3992 142.263 78.9006 142.462 78.4803 142.203C77.8862 142.164 77.9484 141.693 77.8905 141.359C77.6143 139.761 77.4944 138.141 77.2919 136.532C77.2348 136.079 77.3007 135.626 77.4958 135.207C79.861 130.118 81.109 124.658 82.1812 119.135C83.9349 110.102 84.9584 100.947 86.1652 91.8223C86.979 85.6689 88.0871 79.5982 90.3698 73.8438C94.6791 62.9803 102.366 56.9911 113.287 55.6898C124.039 54.4085 133.014 58.3504 140.642 66.3155C145.393 71.2761 148.749 77.2254 151.499 83.6171C155.405 92.6949 157.368 102.352 158.951 112.129C160.025 118.754 161.005 125.402 162.425 131.955C163.641 137.563 165.452 142.963 167.621 148.234C169.896 153.761 172.536 159.125 174.199 164.928C174.379 165.557 174.846 166.258 174.355 166.857C173.856 167.465 173.145 167.039 172.556 166.893C164.582 164.917 156.607 162.938 148.634 160.954C147.861 160.762 147.115 160.659 146.26 160.831C145.68 160.648 145.182 160.492 144.604 160.333C144.178 159.98 144.363 159.547 144.383 159.153C144.47 157.507 144.361 155.898 143.605 154.42C142.66 152.577 141.227 151.542 139.223 151.665C138.379 151.717 138.048 151.382 138.048 150.529C138.047 150.038 138.003 149.543 138.048 149.057C138.204 147.368 137.331 146.373 136.071 145.645C134.839 144.935 133.485 144.656 132.116 144.47C128.28 143.951 124.459 143.899 120.682 144.971C120.135 145.127 119.61 145.336 119.092 145.584C117.514 146.339 116.665 147.527 116.792 149.481C116.857 150.478 116.99 151.518 116.559 152.565C116.032 152.471 115.572 152.315 115.032 152.139C114.574 151.258 113.907 150.885 113.062 150.677C111.656 150.332 111.497 150.05 111.374 148.522C111.201 146.364 110.632 144.298 110.005 142.252C108.96 138.846 107.839 135.463 107.132 131.951C106.903 130.812 106.725 129.659 106.789 128.478C106.92 126.082 108.149 124.409 109.879 123.078C111.055 122.173 112.329 121.436 113.62 120.739C116.074 119.412 118.51 118.048 120.909 116.609C124.319 114.561 126.904 111.617 128.862 108.035C130.646 104.773 131.74 101.239 132.273 97.5041C132.406 96.5722 132.45 95.6801 131.484 95.0525C131.252 94.5778 131.271 94.1511 131.314 93.6354C131.45 92.9678 131.913 92.7355 132.314 92.4377C133.942 91.2316 134.998 89.6662 135.365 87.514C135.789 85.0256 134.39 81.8722 131.562 81.4983C131.388 81.4753 131.217 81.426 130.979 81.3194C130.605 80.9873 130.455 80.6093 130.362 80.1078C130.78 79.0229 130.472 78.3067 129.792 77.5102C126.857 74.0744 123.537 71.1864 119.589 69.2192C113.946 66.4073 108.197 65.9968 102.406 68.7317C99.4289 70.1375 97.2306 72.4738 95.6651 75.5023C94.8098 77.1568 94.0727 78.8697 93.6658 80.724C93.5342 81.3238 93.2651 81.8336 92.8898 82.3081C90.8137 84.933 90.8846 89.2 93.027 91.7711C93.3771 92.1911 93.8084 92.5413 94.0396 93.1707C94.1097 93.8226 93.9638 94.3542 93.7743 94.9666C93.1404 95.4652 92.7845 96.026 92.7107 96.803C92.3433 100.672 92.2287 104.53 92.58 108.42C93.0419 113.536 95.5238 117.093 99.5532 119.622C100.891 120.461 102.185 121.382 103.443 122.358C104.106 122.872 104.688 123.468 105.154 124.191C105.637 124.942 105.848 125.744 105.635 126.657C105.305 128.07 105.295 129.492 105.523 130.928C105.661 131.796 105.568 132.645 105.257 133.483C103.703 137.658 102.177 141.844 101.246 146.247C101.01 147.362 100.841 147.429 99.6216 147.104C93.7338 145.538 87.8463 143.97 81.9668 142.369C81.2047 142.161 80.5153 142.118 79.7821 142.653Z" fill="#EB5757"/>
<path d="M146.175 160.894C146.801 160.366 147.422 160.34 148.169 160.528C156.533 162.638 164.907 164.7 173.278 166.777C174.513 167.084 174.511 167.089 174.178 165.83C172.887 160.949 170.862 156.382 168.817 151.838C164.423 142.071 161.778 131.769 160.126 121.106C158.674 111.735 157.37 102.313 154.638 93.2303C152.007 84.48 148.471 76.2082 142.782 69.1894C137.259 62.3757 130.577 57.4761 122.093 56.1662C112.99 54.7606 104.517 56.5011 97.4343 63.2762C93.2961 67.2347 90.9003 72.3895 89.2128 77.9556C87.5408 83.4706 86.7646 89.181 86.0234 94.8998C84.6723 105.325 83.495 115.783 80.9548 125.985C80.1551 129.197 79.183 132.345 77.7354 135.298C77.5181 135.741 77.5117 136.162 77.5655 136.608C77.7868 138.442 78.0224 140.273 78.3268 142.155C78.4003 144.475 78.9887 146.68 79.0619 148.946C79.0781 149.446 79.3339 149.789 79.9698 149.973C85.0618 151.448 90.1708 152.848 95.2887 154.215C98.3264 155.027 101.352 155.892 104.372 156.775C104.897 156.929 105.568 157.049 105.517 157.949C105.472 158.74 105.078 158.997 104.391 159.232C98.893 161.11 93.4258 163.093 87.9258 164.965C85.6913 165.726 83.4359 166.428 81.2588 167.352C80.06 167.861 79.001 167.374 77.9464 167.096C71.3347 165.351 64.7677 163.406 58.1385 161.744C49.4477 159.565 40.8298 157.077 32.1391 154.904C31.3966 154.719 31.083 154.214 30.9942 153.565C30.7883 152.064 30.6972 150.545 30.5312 149.036C30.2647 146.616 29.9106 144.204 29.7153 141.778C29.5459 139.673 29.2696 137.585 29.0561 135.487C28.8055 133.026 28.4901 130.572 28.2485 128.114C28.0312 125.904 27.8018 123.693 27.5509 121.488C27.2883 119.181 27.1949 116.851 26.7481 114.565C26.6418 114.022 26.6731 113.429 26.7358 112.87C26.8427 111.918 27.556 111.918 28.1778 112.046C30.1897 112.459 32.1993 112.895 34.1917 113.404C38.077 114.396 41.9916 115.237 45.8993 116.116C49.105 116.837 52.2973 117.626 55.4982 118.372C59.1001 119.212 62.704 120.042 66.3087 120.867C69.3129 121.555 72.3204 122.226 75.3244 122.915C76.1556 123.106 76.1884 123.902 76.2688 124.562C76.5404 126.792 76.7525 129.031 77.01 131.482C77.7697 130.238 78.0447 128.988 78.3846 127.788C79.3934 124.226 80.1771 120.6 80.8576 116.951C81.3008 114.576 81.6344 112.176 81.9963 109.784C82.43 106.916 82.872 104.049 83.2533 101.174C83.5829 98.6875 83.7766 96.1799 84.1308 93.6982C84.633 90.1793 85.0893 86.6508 85.8076 83.1697C86.7129 78.7825 87.932 74.4987 89.8563 70.5027C92.7974 64.3951 97.0557 59.6312 102.934 56.7162C105.883 55.254 109.004 54.3528 112.253 53.9542C114.086 53.7292 115.914 53.427 117.761 53.5289C120.957 53.7052 124.096 54.1891 127.178 55.2309C132.061 56.8812 136.27 59.669 140.122 63.2241C145.633 68.3105 149.413 74.6871 152.54 81.6144C155.188 87.4813 157.061 93.6205 158.448 99.941C159.48 104.649 160.233 109.416 161.031 114.176C162.177 121.02 163.126 127.915 164.838 134.633C165.757 138.242 166.986 141.75 168.334 145.214C170.735 151.386 173.743 157.282 175.673 163.667C175.955 164.602 176.325 165.536 176.419 166.497C176.515 167.471 177.033 167.648 177.736 167.819C180.127 168.4 182.507 169.031 184.898 169.608C185.579 169.772 186.142 170.084 185.911 170.885C185.704 171.606 185.268 171.959 184.344 171.725C178.073 170.133 171.775 168.665 165.494 167.123C161.807 166.218 158.136 165.24 154.454 164.316C152.098 163.724 149.733 163.171 147.373 162.595C146.581 162.402 146.028 161.987 146.175 160.894Z" fill="#020203"/>
<path d="M79.6837 142.735C80.2097 141.831 80.8883 141.817 81.7179 142.043C87.7937 143.695 93.8779 145.311 99.9602 146.936C100.409 147.056 100.847 147.332 101.002 146.46C101.773 142.142 103.282 138.072 104.813 134.02C105.264 132.825 105.46 131.679 105.213 130.407C104.99 129.252 104.985 128.04 105.324 126.926C105.742 125.554 105.227 124.591 104.428 123.667C103.531 122.63 102.411 121.903 101.322 121.136C100.204 120.347 99.0837 119.564 97.9626 118.781C94.6394 116.461 92.8993 113.124 92.3995 108.961C91.8923 104.736 92.0115 100.526 92.5355 96.3157C92.6164 95.6657 92.7474 95.1164 93.5561 95.0303C94.5417 95.1794 94.8704 95.6262 94.7125 96.7471C94.279 99.8236 94.2997 102.919 94.3747 106.009C94.4362 108.545 94.859 111.024 95.9757 113.392C96.2742 113.114 96.2422 112.795 96.2902 112.528C96.7189 110.137 97.7715 108.143 99.5574 106.618C100.046 106.201 100.358 105.673 100.564 105.058C101.053 103.59 101.665 102.19 102.64 101.015C102.99 100.592 102.842 100.392 102.474 100.152C101.241 99.3463 100.106 98.3984 98.9606 97.1426C98.9877 98.1868 99.0779 99.0238 99.1268 99.867C99.2792 102.497 99.0835 105.073 97.7707 107.408C97.5342 107.828 97.2843 108.245 96.9088 108.543C96.4011 108.947 95.8591 109.01 95.3518 108.574C94.8393 108.134 94.7173 107.483 95.0793 106.949C97.4513 103.451 96.4166 99.5608 96.2544 95.7723C96.2261 95.1128 95.8715 94.6771 95.2972 94.403C94.7866 94.1592 94.2611 93.9055 93.9211 93.2669C91.628 90.9327 90.7037 88.2005 91.3084 84.9243C91.4684 84.0573 91.7656 83.2094 92.3603 82.6208C93.1362 81.8528 93.3775 80.8832 93.6549 79.8725C96.578 69.223 104.849 65.7807 112.806 66.8428C120.203 67.83 125.784 72.2691 130.568 78.0735C131.054 78.6619 131.174 79.258 130.486 79.891C129.616 80.7132 129.171 79.9312 128.73 79.4253C126.922 77.3481 125.049 75.3542 122.864 73.7229C118.92 70.7787 114.629 68.8298 109.745 69.0391C105.232 69.2325 101.259 70.8689 98.3916 74.8547C97.4567 76.1541 96.8479 77.646 96.2485 79.1385C96.1338 79.4242 95.8797 79.8598 96.2443 80.0516C96.7102 80.2967 96.9186 79.811 97.0879 79.4414C97.4609 78.6267 97.805 77.7884 98.3354 77.0786C99.0104 76.1755 100.083 76.2572 100.503 77.198C100.766 77.7869 100.552 78.292 100.281 78.8008C99.1531 80.9226 98.3203 83.1496 98.1113 85.6126C97.7568 89.791 98.9133 93.3954 101.806 96.2326C105.206 99.5662 109.365 100.515 113.812 100.052C118.41 99.5734 122.576 97.8145 126.169 94.6334C126.472 94.3653 126.813 94.1672 127.213 94.1182C127.707 94.0576 128.126 94.2062 128.408 94.6656C128.668 95.0893 128.614 95.526 128.414 95.9576C128.285 96.2345 128.107 96.4889 127.861 96.6321C126.601 97.3684 126.509 98.4107 127.112 99.6705C127.223 99.9027 127.277 100.17 127.299 100.435C127.359 101.155 127.131 101.725 126.456 101.946C125.828 102.151 125.365 101.828 125.036 101.258C124.999 101.194 124.972 101.123 124.942 101.055C124.203 99.4144 124.206 99.4208 122.637 100.233C120.623 101.276 118.503 101.972 116.308 102.421C115.092 102.669 115.091 102.675 115.503 103.866C115.724 104.504 115.879 105.165 116.063 105.815C116.304 106.67 116.82 107.015 117.669 106.877C120.116 106.479 122.409 105.694 124.359 103.987C124.523 103.843 124.683 103.689 124.874 103.591C125.462 103.29 126.05 103.234 126.526 103.791C127.028 104.38 126.856 104.994 126.423 105.525C125.277 106.929 123.777 107.771 122.194 108.446C121.244 108.851 120.268 109.209 119.247 109.342C118.452 109.446 118.309 109.854 118.606 110.582C118.976 111.491 119.135 112.462 119.275 113.433C119.386 114.21 119.22 114.869 118.365 115.195C117.334 115.272 116.971 114.618 116.82 113.77C116.566 112.346 116.285 110.861 115.421 109.772C114.141 108.159 113.572 106.26 112.924 104.35C112.42 102.863 111.858 102.749 110.761 103.778C110.176 104.326 109.663 104.948 109.167 105.591C108.272 106.751 107.292 106.668 106.51 105.405C106.256 104.996 106.045 104.558 105.786 104.152C104.766 102.551 104.438 102.566 103.608 104.246C103.161 105.152 102.824 106.106 102.505 107.067C102.333 107.583 102.076 108.005 101.649 108.321C99.1663 110.157 98.2892 112.674 98.9245 115.892C99.0686 116.651 99.4757 117.088 100.002 117.448C101.366 118.379 102.74 119.293 104.069 120.284C104.88 120.889 105.642 121.558 106.288 122.36C106.669 122.832 106.995 122.854 107.439 122.45C109.606 120.479 112.156 119.189 114.726 117.779C115.915 117.235 116.902 116.457 118.071 115.869C125.199 112.165 128.768 105.813 130.213 97.8322C130.313 97.2783 130.398 96.7195 130.481 96.1611C130.565 95.5976 130.824 95.1763 131.47 95.0722C132.49 95.2343 132.741 95.8518 132.609 96.7908C131.35 105.782 127.708 113.094 119.92 117.495C117.212 119.025 114.475 120.5 111.805 122.103C107.191 124.871 106.301 127.112 107.501 132.63C108.267 136.157 109.493 139.536 110.464 142.998C111.042 145.057 111.618 147.119 111.692 149.289C111.712 149.866 111.929 150.182 112.465 150.284C112.95 150.376 113.425 150.526 113.907 150.637C114.576 150.791 114.983 151.17 114.946 152.038C114.724 153.034 114.058 152.958 113.452 152.796C102.541 149.876 91.6358 146.93 80.7215 144.024C80.0452 143.844 79.9048 143.335 79.6837 142.735Z" fill="#060607"/>
<path d="M116.505 152.732C116.511 151.497 116.627 150.358 116.528 149.24C116.367 147.423 117.187 146.311 118.569 145.522C120.019 144.694 121.598 144.307 123.212 144.116C127.011 143.666 130.795 143.72 134.536 144.678C135.223 144.854 135.871 145.146 136.488 145.512C137.724 146.246 138.48 147.286 138.339 148.89C138.323 149.077 138.336 149.267 138.337 149.456C138.342 150.059 138.155 150.781 138.401 151.235C138.7 151.788 139.398 151.273 139.928 151.332C142.513 151.622 144.371 153.842 144.657 157.104C144.746 158.122 144.709 159.138 144.518 160.237C144.089 163.091 142.67 165.193 140.673 166.902C140.462 167.082 140.232 167.272 139.981 167.355C138.374 167.891 138.071 169.181 138.354 170.711C138.615 172.125 137.859 172.883 136.91 173.461C134.529 174.911 131.963 175.717 129.203 175.753C126.255 175.792 123.311 175.874 120.498 174.635C119.547 174.216 118.607 173.771 117.8 173.116C116.964 172.439 116.449 171.634 116.474 170.291C116.582 164.475 116.519 158.655 116.505 152.732Z" fill="#040303"/>
<path d="M131.541 94.9715C130.987 95.3623 130.772 95.813 130.687 96.4903C129.917 102.687 127.721 108.148 123.379 112.483C121.896 113.963 120.17 115.041 118.321 116.051C117.973 115.816 117.978 115.516 118.163 115.121C119.015 114.829 119.165 114.233 119.017 113.476C118.741 112.074 118.434 110.682 117.788 109.302C119.05 109.005 120.271 108.856 121.426 108.404C123.093 107.752 124.649 106.909 125.981 105.627C126.514 105.114 126.844 104.529 126.278 103.891C125.77 103.318 125.235 103.565 124.714 104.056C122.597 106.048 120.06 106.94 117.296 107.231C116.501 107.315 116.045 107.013 115.834 106.177C115.514 104.911 115.134 103.663 114.563 102.377C117.985 101.932 121.132 100.839 124.056 99.0575C124.488 98.7943 124.585 98.9732 124.696 99.3502C124.854 99.8894 125.025 100.424 125.196 100.959C125.405 101.614 125.854 101.849 126.442 101.639C127.058 101.419 127.189 100.905 126.986 100.273C126.963 100.202 126.947 100.126 126.916 100.06C126.166 98.4815 126.129 97.14 127.846 96.2012C128.401 95.8979 128.576 95.2318 128.107 94.6549C127.602 94.0338 127.053 94.2521 126.535 94.7163C123.36 97.5595 119.731 99.3925 115.654 100.119C110.982 100.953 106.491 100.48 102.556 97.3589C97.7217 93.5231 96.3612 86.7053 99.105 80.4787C99.4345 79.7311 99.8352 79.0191 100.211 78.2952C100.525 77.6893 100.393 77.191 99.8658 76.8416C99.3507 76.5003 98.8856 76.702 98.5898 77.1994C98.1752 77.8963 97.801 78.625 97.4605 79.3669C96.9153 80.5551 96.933 80.5644 95.5264 80.4936C96.987 75.1879 99.8646 71.3476 104.894 69.6252C110.461 67.7187 115.664 68.8487 120.637 71.8319C123.841 73.7539 126.551 76.3136 128.971 79.2458C129.327 79.6775 129.652 80.1367 130.36 79.967C130.603 80.3045 130.772 80.6585 130.953 81.0968C130.599 81.5882 130.054 81.545 129.622 81.7892C129.232 82.0101 128.838 82.2563 128.986 82.8088C129.139 83.3768 129.586 83.3377 130.03 83.2569C132.844 82.7446 134.577 84.8691 133.808 87.8821C133.434 89.3437 132.535 90.3724 131.406 91.2022C131.002 91.5 130.563 91.7462 130.141 92.0163C129.678 92.3119 128.955 92.5335 129.3 93.3158C129.612 94.0237 130.209 93.6171 130.695 93.454C130.929 93.3754 131.148 93.2458 131.478 93.2576C131.547 93.8015 131.54 94.3297 131.541 94.9715Z" fill="#FDFDFD"/>
<path d="M138.738 131.736C143.103 127.362 146.323 122.241 148.58 116.414C148.836 115.753 149.187 115.258 149.925 115.567C150.66 115.876 150.641 116.514 150.379 117.169C146.902 125.844 141.869 133.134 134.056 137.869C131.407 139.475 128.557 140.394 125.443 139.729C124.719 139.574 124.089 139.302 124.292 138.347C124.492 137.405 125.207 137.562 125.835 137.707C128.093 138.23 130.158 137.549 132.173 136.569C134.603 135.387 136.713 133.696 138.738 131.736Z" fill="#050508"/>
<path d="M93.8729 93.2796C94.0371 93.2748 94.1824 93.3934 94.3459 93.4429C96.2944 94.0327 96.7275 95.5741 96.7689 97.5235C96.8161 99.7415 97.1188 101.954 96.6504 104.162C96.4441 105.134 96.1087 106.03 95.4636 106.767C95.0171 107.277 94.8761 107.852 95.3856 108.354C95.938 108.898 96.4721 108.661 96.9329 108.107C98.0575 106.756 98.5662 105.13 98.7216 103.373C98.9007 101.35 98.9525 99.3234 98.5377 97.3138C98.4929 97.0968 98.3849 96.7625 98.6919 96.6286C98.9175 96.5302 99.0833 96.7075 99.2255 96.8885C100.42 98.4087 101.92 99.5184 103.56 100.508C102.007 101.852 101.356 103.718 100.668 105.554C100.523 105.94 100.422 106.314 100.078 106.582C97.7947 108.357 96.6458 110.797 96.4376 113.781C96.426 113.946 96.5071 114.15 96.2502 114.324C95.0339 112.628 94.5944 110.631 94.3079 108.597C93.7525 104.651 93.9393 100.703 94.424 96.7662C94.5147 96.0292 94.517 95.4082 93.7065 95.0377C93.709 94.4626 93.7857 93.9167 93.8729 93.2796Z" fill="#FBFBFB"/>
<path d="M149.649 148.187C149.115 149.396 148.531 150.465 147.633 151.298C147.128 151.766 146.554 151.989 146.05 151.389C145.541 150.782 145.813 150.247 146.334 149.748C147.444 148.685 148.006 147.246 148.503 145.796C150.424 140.195 151.292 134.372 151.638 128.443C151.647 128.293 151.64 128.141 151.64 127.99C151.636 127.261 151.837 126.704 152.643 126.733C153.387 126.759 153.564 127.293 153.555 127.973C153.526 130.315 153.283 132.637 152.95 134.947C152.3 139.459 151.452 143.917 149.649 148.187Z" fill="#050509"/>
<path d="M131.603 93.2271C131.074 93.5007 130.601 93.7488 130.112 93.9501C129.551 94.1807 129.142 93.9252 128.919 93.3723C128.706 92.845 128.895 92.3943 129.334 92.117C129.998 91.6982 130.728 91.3898 131.361 90.9266C133.007 89.7211 134 88.1187 133.686 85.8757C133.416 83.9495 131.868 82.898 130.139 83.4797C129.481 83.7011 128.912 83.7315 128.651 82.9742C128.363 82.1375 128.895 81.7167 129.558 81.4927C129.956 81.3578 130.379 81.3049 130.878 81.1981C132.965 81.2939 134.455 82.272 135.232 84.2655C136.135 86.5793 135.683 88.7479 134.367 90.7395C133.666 91.7998 132.692 92.5388 131.603 93.2271Z" fill="#070708"/>
<path d="M90.351 141.175C89.597 141.079 88.9224 140.903 89.0174 139.991C89.1076 139.124 89.7122 139.023 90.4411 139.088C91.4943 139.182 92.4392 138.69 93.3604 138.216C95.9526 136.884 98.2836 135.129 100.431 133.091C100.965 132.584 101.526 132.082 102.138 132.854C102.729 133.598 102.228 134.172 101.695 134.669C99.2115 136.988 96.5363 138.995 93.5033 140.417C92.526 140.875 91.5151 141.182 90.351 141.175Z" fill="#050509"/>
<path d="M29.4803 120.614C29.289 118.825 29.1378 117.133 28.9 115.455C28.7842 114.637 28.8922 114.403 29.7266 114.599C36.5013 116.194 43.2852 117.743 50.0654 119.311C57.8436 121.11 65.6184 122.926 73.4026 124.694C74.0889 124.85 74.3043 125.137 74.3878 125.857C75.5422 135.819 76.7304 145.775 77.9053 155.734C78.267 158.799 78.6137 161.866 78.9857 165.092C76.9149 164.547 74.9196 164.027 72.9265 163.498C59.91 160.038 46.8959 156.568 33.8728 153.138C33.1507 152.947 32.9314 152.636 32.8511 151.873C31.982 143.622 31.0723 135.376 30.175 127.128C29.9425 124.991 29.7147 122.854 29.4803 120.614Z" fill="#D9D9D9"/>
<path d="M100.451 157.94C100.945 158.595 100.254 158.373 100.167 158.403C96.7997 159.601 93.4204 160.762 90.0442 161.933C87.0401 162.975 84.0379 164.023 80.9314 165.105C80.4206 160.788 79.9176 156.538 79.3899 152.077C86.4766 154.046 93.4271 155.977 100.451 157.94Z" fill="#D7D7D7"/>
<path d="M118.143 115.033C118.233 115.331 118.241 115.612 118.25 115.977C117.152 116.688 116.054 117.315 114.877 117.952C114.507 117.976 114.223 117.919 114.013 117.702C113.007 116.659 111.898 115.72 111.103 114.368C111.123 114.141 111.061 114.322 111.096 114.176C111.523 112.39 111.232 112.016 109.437 112.135C108.898 111.949 108.621 111.542 108.402 111.117C108.012 110.358 107.595 110.466 107.057 110.933C106.651 111.285 106.33 111.771 105.718 111.94C105.54 111.937 105.439 111.912 105.338 111.881C103.786 111.405 103.426 111.707 103.532 113.392C103.539 113.504 103.532 113.615 103.485 113.802C102.091 115.02 100.635 115.956 98.8107 116.168C97.8216 113.352 98.7837 110.107 101.142 108.329C101.791 107.84 102.165 107.274 102.413 106.49C102.807 105.242 103.299 104.032 104.01 102.936C104.408 102.323 104.773 102.253 105.243 102.857C105.834 103.615 106.317 104.443 106.778 105.291C107.391 106.418 108.001 106.496 108.847 105.54C109.549 104.748 110.146 103.844 110.968 103.179C111.927 102.403 112.559 102.469 112.937 103.666C113.716 106.133 114.764 108.411 116.156 110.548C116.797 111.532 116.961 112.791 117.139 113.984C117.229 114.584 117.469 114.964 118.143 115.033Z" fill="#F79C7F"/>
<path d="M105.616 111.931C106.207 111.366 106.794 110.901 107.309 110.359C107.717 109.931 107.962 109.947 108.265 110.462C108.56 110.962 108.92 111.417 109.291 111.955C109.343 112.053 109.371 112.09 109.367 112.121C109.097 114.035 109.253 114.23 111.124 114.251C112.23 115.621 113.383 116.836 114.731 117.936C113.211 118.911 111.617 119.847 110.038 120.811C108.996 121.447 108.033 122.203 107.184 123.118C107.013 123.303 106.866 123.696 106.574 123.234C105.18 121.034 102.976 119.924 101.018 118.474C100.178 117.852 99.0565 117.533 98.738 116.202C100.403 115.649 101.873 114.749 103.393 113.758C103.496 113.705 103.532 113.686 103.563 113.692C105.273 113.981 105.498 113.793 105.616 111.931Z" fill="#FCFBFB"/>
<path d="M102.993 146.093C103.833 142.541 104.951 139.188 106.257 135.708C107.459 139.969 108.961 143.942 109.69 148.163C109.928 149.542 109.897 149.565 108.61 149.23C107.109 148.839 105.608 148.45 104.107 148.057C102.7 147.689 102.701 147.687 102.993 146.093Z" fill="#FBFBFB"/>
<path d="M95.9764 89.3277C96.1826 90.3687 96.382 91.3115 96.5836 92.2652C93.4101 91.4653 92.1691 86.5081 93.6616 84.1679C93.9024 83.7903 94.1867 83.4693 94.5448 83.2111C95.0259 82.8642 95.6545 82.4707 96.0915 82.7216C96.4952 82.9533 96.0812 83.6673 96.017 84.1647C95.7993 85.8521 95.6855 87.5379 95.9764 89.3277Z" fill="#F9F9F9"/>
<path d="M107.154 102.158C107.72 101.839 108.268 102.176 108.873 102.297C108.051 103.467 108.051 103.467 107.154 102.158Z" fill="#E2E2E2"/>
<path d="M107.119 102.092C107.132 102.026 107.138 101.961 107.144 101.896C107.169 101.952 107.194 102.008 107.158 102.081C107.098 102.098 107.112 102.094 107.119 102.092Z" fill="#E2E2E2"/>
<path d="M132.966 151.876C133.843 151.656 134.674 151.563 135.408 151.227C136.42 150.764 136.449 151.221 136.443 152.112C136.412 157.063 136.428 162.014 136.428 166.965C136.428 168.061 136.387 169.16 136.443 170.253C136.48 170.955 136.225 171.35 135.683 171.699C133.854 172.875 131.845 173.394 129.759 173.595C126.452 173.913 123.209 173.709 120.155 172.092C118.995 171.478 118.385 170.735 118.418 169.154C118.535 163.412 118.477 157.665 118.45 151.921C118.446 151.079 118.567 150.934 119.369 151.211C123.411 152.602 127.558 152.554 131.723 152.058C132.108 152.012 132.492 151.95 132.966 151.876Z" fill="#F89C7F"/>
<path d="M135.096 149.191C130.204 150.616 125.37 150.736 120.525 149.449C119.799 149.257 118.686 149.116 118.663 148.276C118.637 147.354 119.759 147.151 120.5 146.881C123.347 145.843 126.295 145.818 129.256 145.964C130.981 146.049 132.692 146.235 134.356 146.762C134.624 146.847 134.887 146.963 135.14 147.091C135.648 147.349 136.332 147.591 136.353 148.221C136.375 148.864 135.596 148.87 135.096 149.191Z" fill="#F59B7E"/>
<path d="M138.39 164.374C140.541 162.874 141.625 160.864 141.51 158.158C141.425 156.131 140.66 155.216 138.792 155.05C138.387 155.014 138.322 154.866 138.332 154.519C138.346 154.079 138.248 153.66 138.861 153.485C140.444 153.034 142.06 154.145 142.544 156.16C143.152 158.693 142.644 161.024 141.255 163.131C140.526 164.236 139.616 165.161 138.463 165.852C138.247 165.335 138.355 164.891 138.39 164.374Z" fill="#EE967A"/>
<path d="M139.431 158.89C139.438 159.935 139.142 160.742 138.34 161.553C138.34 160.482 138.34 159.606 138.354 158.627C138.782 158.367 139.147 158.421 139.431 158.89Z" fill="white"/>
<path d="M139.495 158.934C139.224 158.562 138.752 158.875 138.437 158.556C138.358 158.302 138.353 158.079 138.334 157.858C138.296 157.423 138.422 157.134 138.874 157.099C139.335 157.063 139.491 157.406 139.548 157.781C139.602 158.142 139.564 158.518 139.495 158.934Z" fill="#979AF8"/>
<path d="M117.979 76.8809C119.7 79.4382 122.101 80.6732 124.789 81.4084C125.096 81.4924 125.416 81.5344 125.712 81.6486C126.219 81.844 126.398 82.2768 126.307 82.8213C126.211 83.3949 125.816 83.7115 125.321 83.6271C120.233 82.7599 114.934 78.9987 114.749 72.7223C114.729 72.0619 114.825 71.4903 115.571 71.4023C116.373 71.3076 116.636 71.846 116.662 72.5743C116.716 74.1182 117.109 75.538 117.979 76.8809Z" fill="#080808"/>
<path d="M111.368 77.3424C111.697 78.2479 112.18 78.9393 112.749 79.5634C113.219 80.0783 113.483 80.6594 112.937 81.232C112.403 81.792 111.847 81.5623 111.371 81.0298C109.048 78.4307 108.542 75.3158 109.133 71.9047C109.242 71.2737 109.723 71.0697 110.27 71.1864C110.85 71.31 111.089 71.7692 110.996 72.3681C110.809 73.5689 110.713 74.764 110.993 75.9611C111.096 76.3981 111.216 76.8301 111.368 77.3424Z" fill="#080808"/>
<path d="M105.364 73.1145C104.86 75.5295 104.911 77.7713 106.212 79.8251C106.551 80.3609 106.592 80.927 106.071 81.3212C105.528 81.733 104.999 81.5788 104.612 80.9873C103.168 78.7851 102.978 76.3113 103.27 73.7431C103.32 73.2986 103.469 72.8673 103.566 72.4283C103.722 71.7238 104.051 71.2092 104.808 71.4127C105.652 71.6398 105.641 72.2998 105.364 73.1145Z" fill="#080808"/>
<path d="M114.863 88.383C114.521 88.9837 114.096 89.1363 113.566 88.8998C113.104 88.6934 113.016 88.2511 113.011 87.7835C113.001 86.954 113.002 86.1243 113.01 85.2948C113.015 84.6166 113.224 84.0985 113.962 84.0859C114.692 84.0735 114.951 84.558 114.948 85.2506C114.944 86.2666 114.913 87.2824 114.863 88.383Z" fill="#181818"/>
<path d="M106.74 85.3337C106.709 84.4569 106.897 83.851 107.765 83.9133C108.564 83.9707 108.66 84.6058 108.656 85.2928C108.652 86.0434 108.649 86.794 108.657 87.5445C108.663 88.292 108.365 88.8349 107.643 88.8217C106.968 88.8095 106.709 88.2877 106.734 87.5771C106.76 86.8651 106.74 86.1512 106.74 85.3337Z" fill="#0A0A0A"/>
<path d="M49.9823 134.666C51.6039 133.352 53.8901 133.928 55.2069 135.191C56.1125 136.06 56.1179 136.872 55.2957 137.811C53.909 139.395 53.9101 140.123 55.3015 141.751C56.4955 143.147 56.1525 144.702 54.4994 145.387C52.5404 146.199 50.5074 145.386 49.7773 143.509C49.5248 142.86 49.5286 142.308 50.03 141.756C51.4016 140.246 51.3816 138.904 50.0186 137.21C49.0878 136.054 49.0766 135.773 49.9823 134.666Z" fill="#040404"/>
<path d="M51.666 132.513C51.1815 132.039 50.9126 131.521 50.7643 130.931C50.5249 129.979 50.8711 129.556 51.7648 129.696C52.756 129.853 53.8419 131.373 53.7182 132.431C53.6535 132.984 53.3613 133.208 52.8493 133.14C52.4135 133.082 52.0725 132.822 51.666 132.513Z" fill="#080808"/>
<path d="M105.584 111.819C105.855 112.576 105.966 113.287 105.328 113.822C104.76 114.299 104.163 114.257 103.525 113.758C103.023 112.966 102.96 112.213 103.64 111.621C104.264 111.078 104.927 111.201 105.584 111.819Z" fill="#090707"/>
<path d="M111.217 114.203C110.514 114.619 109.823 114.794 109.255 114.111C108.744 113.495 108.75 112.816 109.298 112.097C110 111.656 110.675 111.529 111.237 112.193C111.757 112.807 111.695 113.479 111.217 114.203Z" fill="#0B0808"/>
<path d="M108.864 117.032C109.359 117.805 110.325 118.558 109.291 119.368C108.371 120.089 107.848 119.068 107.412 118.37C106.985 117.685 106.633 117.474 106.119 118.255C105.94 118.526 105.697 118.769 105.439 118.958C105.021 119.264 104.568 119.273 104.195 118.865C103.827 118.461 103.795 117.946 104.119 117.533C104.743 116.737 105.39 115.995 105.88 115.061C106.389 114.093 107.771 114.392 108.121 115.488C108.293 116.027 108.462 116.538 108.864 117.032Z" fill="#090909"/>
</svg>
